<?xml version="1.0" encoding="UTF-8" standalone="no"?>
<!-- Created with Inkscape (http://www.inkscape.org/) -->

<svg
   xmlns:dc="http://purl.org/dc/elements/1.1/"
   xmlns:cc="http://creativecommons.org/ns#"
   xmlns:rdf="http://www.w3.org/1999/02/22-rdf-syntax-ns#"
   xmlns:svg="http://www.w3.org/2000/svg"
   xmlns="http://www.w3.org/2000/svg"
   xmlns:sodipodi="http://sodipodi.sourceforge.net/DTD/sodipodi-0.dtd"
   xmlns:inkscape="http://www.inkscape.org/namespaces/inkscape"
   width="885.82672"
   height="354.33069"
   id="svg4232"
   version="1.1"
   inkscape:version="0.47 r22583"
   sodipodi:docname="New document 7">
  <defs
     id="defs4234">
    <inkscape:perspective
       sodipodi:type="inkscape:persp3d"
       inkscape:vp_x="0 : 526.18109 : 1"
       inkscape:vp_y="0 : 1000 : 0"
       inkscape:vp_z="744.09448 : 526.18109 : 1"
       inkscape:persp3d-origin="372.04724 : 350.78739 : 1"
       id="perspective4240" />
    <inkscape:perspective
       id="perspective4268"
       inkscape:persp3d-origin="0.5 : 0.33333333 : 1"
       inkscape:vp_z="1 : 0.5 : 1"
       inkscape:vp_y="0 : 1000 : 0"
       inkscape:vp_x="0 : 0.5 : 1"
       sodipodi:type="inkscape:persp3d" />
  </defs>
  <sodipodi:namedview
     id="base"
     pagecolor="#ffffff"
     bordercolor="#666666"
     borderopacity="1.0"
     inkscape:pageopacity="0.0"
     inkscape:pageshadow="2"
     inkscape:zoom="0.98994949"
     inkscape:cx="575.13337"
     inkscape:cy="198.51917"
     inkscape:document-units="px"
     inkscape:current-layer="layer1"
     showgrid="false"
     units="cm"
     inkscape:showpageshadow="false"
     inkscape:window-width="1680"
     inkscape:window-height="977"
     inkscape:window-x="0"
     inkscape:window-y="25"
     inkscape:window-maximized="1" />
  <metadata
     id="metadata4237">
    <rdf:RDF>
      <cc:Work
         rdf:about="">
        <dc:format>image/svg+xml</dc:format>
        <dc:type
           rdf:resource="http://purl.org/dc/dcmitype/StillImage" />
        <dc:title></dc:title>
      </cc:Work>
    </rdf:RDF>
  </metadata>
  <g
     inkscape:label="Layer 1"
     inkscape:groupmode="layer"
     id="layer1"
     transform="translate(0,-698.03015)">
    <path
       style="fill:#000000;fill-opacity:1;stroke:none;display:inline"
       d="m 280.34651,742.32234 c -0.3602,-0.0145 -0.69279,0.0144 -1.03924,0.0447 -0.462,0.0462 -0.92719,0.11134 -1.44601,0.22601 -1.63428,0.36063 -2.16771,0.7499 -4.51878,3.20825 -3.37353,3.52856 -4.2115,4.94522 -5.1514,8.72133 -1.26106,5.06754 -1.56271,8.41505 -1.26527,13.51108 0.35904,6.15233 1.33135,10.3514 2.9824,12.7882 0.68714,1.01424 1.79724,2.74308 2.48526,3.8409 2.39516,3.82064 6.57789,5.8815 11.43258,5.60328 2.5522,-0.14533 2.85803,-0.29035 4.60915,-1.62676 1.03173,-0.78619 2.81176,-2.46862 3.97653,-3.75051 1.16476,-1.28189 2.36971,-2.33241 2.66615,-2.34977 1.50096,-0.0883 2.04799,2.38375 2.98226,13.51109 0.45057,5.35904 0.4176,6.02724 -0.18076,7.77229 -0.48195,1.41131 -0.60978,2.75103 -0.49699,5.06104 l 0.18075,3.11803 1.26525,1.21999 c 0.71332,0.6562 1.85118,1.40407 2.48525,1.67202 1.45095,0.61268 4.99047,0.42759 6.23606,-0.31624 0.51841,-0.31045 1.29231,-0.97923 1.71701,-1.49127 0.88726,-1.06817 0.9597,-2.91805 0.18074,-6.05516 -0.26679,-1.07858 -0.90925,-8.06975 -1.44601,-15.49948 -0.90289,-12.51377 -1.05457,-13.65295 -1.85263,-15.45409 -0.47385,-1.07033 -1.42041,-2.39285 -2.12389,-2.98254 -2.20082,-1.84453 -3.86359,-2.38042 -7.63667,-2.39487 -3.83814,-0.0145 -5.4312,-0.29528 -6.32629,-1.17489 -0.48599,-0.48152 -1.34218,-0.59966 -4.20239,-0.49699 l -3.52479,0.13593 -1.12962,1.53638 c -1.15089,1.6178 -1.63617,3.22026 -1.53639,4.9254 0.0433,0.73225 0.52939,1.4194 1.62676,2.39501 1.36156,1.21018 1.50935,1.51123 1.21999,2.2594 -1.1552,2.98789 -5.14388,-1.81503 -6.64253,-7.99816 -0.59112,-2.44073 -0.81251,-6.40756 -0.54224,-9.03756 0.38521,-3.7524 1.69472,-9.69722 2.666,-11.97484 0.80905,-1.89514 1.19079,-2.35439 1.94315,-2.48525 2.06316,-0.36368 4.4255,4.17361 3.66014,7.04928 -0.2934,1.10418 -0.23325,1.52772 0.31639,2.53052 0.36295,0.66141 1.25499,1.81402 1.98826,2.57563 1.0524,1.09276 1.53436,1.35751 2.30464,1.22015 0.53575,-0.0969 1.38123,-0.21763 1.89774,-0.27127 1.16839,-0.11857 3.51685,-2.14776 4.0218,-3.47939 0.62511,-1.64846 0.29237,-3.79491 -0.94903,-6.3714 -0.64173,-1.33337 -1.29041,-2.8472 -1.446,-3.34405 -0.15443,-0.49612 -1.25861,-1.82153 -2.44,-2.98224 -1.90931,-1.87635 -2.4306,-2.17452 -4.6093,-2.66616 -1.99867,-0.45115 -3.25482,-0.69221 -4.33803,-0.72301 z m 112.96947,2.62089 c -0.92616,0.0246 -2.04581,0.35426 -2.666,0.90375 -1.49517,1.32498 -2.06432,3.21145 -2.25938,7.32043 -0.0998,2.09497 -0.31452,6.18963 -0.45189,9.08267 -0.13736,2.89376 -0.14922,7.03657 -0.0447,9.21831 0.20301,4.22913 0.76276,6.40929 2.71126,10.21259 0.92473,1.80288 1.22057,2.06316 3.29878,2.93713 1.25672,0.52837 2.50478,1.03389 2.75653,1.0845 1.22071,0.24466 5.45347,-0.0883 6.55215,-0.49713 0.68151,-0.25306 2.14516,-0.72778 3.20841,-1.08451 1.06253,-0.35543 3.04963,-1.28637 4.42825,-2.03338 1.37965,-0.74701 3.01696,-1.49069 3.66029,-1.67188 1.89369,-0.53444 5.91201,-3.02606 6.82328,-4.24779 1.69097,-2.2659 0.47849,-4.72961 -2.75638,-5.55803 -1.9738,-0.50552 -2.52951,-0.36019 -13.28521,3.3439 -1.36518,0.47023 -2.93496,1.12196 -3.47953,1.44601 -1.15305,0.68714 -2.15485,0.76146 -3.11789,0.31639 -0.84273,-0.39014 -1.75415,-3.44367 -1.53639,-5.15156 0.12003,-0.94381 0.39593,-1.33018 1.26527,-1.67187 1.44485,-0.56771 6.2028,-1.49691 9.17305,-1.80751 2.39271,-0.25017 4.4177,-0.73285 7.86281,-1.85264 4.75809,-1.54824 5.98201,-2.68119 5.82916,-5.28704 -0.12003,-2.03858 -1.7355,-3.5712 -4.42841,-4.24764 -2.37882,-0.59779 -3.5498,-0.46708 -12.29107,1.58163 -2.20936,0.5171 -2.94336,0.48109 -2.98239,-0.18075 -0.0275,-0.46114 1.97654,-1.38542 4.47365,-2.07878 1.14583,-0.31827 2.72168,-1.01293 3.52451,-1.53625 2.66152,-1.73521 3.91796,-5.73804 2.30465,-7.36567 -1.19528,-1.20582 -4.12143,-1.43647 -11.34221,-0.85864 -4.7283,0.37856 -5.49295,0.37944 -5.91953,0 -0.26376,-0.2344 -0.75423,-0.33099 -1.31052,-0.31624 z m -152.1472,3.84103 -1.53639,1.03924 c -0.8316,0.55528 -1.58699,1.2793 -1.71714,1.62677 -0.12869,0.34747 -0.24943,2.50058 -0.27112,4.7899 -0.0203,2.28933 -0.12725,5.69554 -0.22586,7.59155 -0.0998,1.89586 -0.23976,5.18163 -0.31639,7.27516 -0.19942,5.38986 -0.42991,8.30776 -0.67789,8.58583 -0.43396,0.48818 -2.70737,-1.37356 -7.00404,-5.73892 -2.42857,-2.46762 -5.64435,-6.13238 -7.13967,-8.13381 -4.05317,-5.42514 -5.40085,-6.83962 -7.81742,-8.22417 -1.72292,-0.98632 -2.66976,-1.26888 -4.47366,-1.35564 -1.72422,-0.0824 -2.53616,0.0447 -3.29864,0.49714 -1.28333,0.76089 -1.59552,1.24646 -2.07877,3.163 -0.3336,1.32816 -0.28358,1.95905 0.40675,4.65441 0.44133,1.72379 1.26482,4.24231 1.80751,5.6033 0.54269,1.36083 1.62358,5.12465 2.44015,8.35966 1.30169,5.15748 2.81161,10.26117 4.0669,13.69198 0.21386,0.58433 0.65561,2.11304 0.94901,3.38915 0.75439,3.2836 1.31212,4.2637 2.62075,4.74465 1.50197,0.5515 2.07704,0.51955 4.20253,-0.31638 2.56291,-1.0073 3.18512,-2.21905 2.71127,-5.51278 -0.37798,-2.62841 -0.85372,-4.44749 -2.16901,-8.58582 -0.92285,-2.90286 -1.61476,-6.57717 -1.26526,-6.59727 0.46056,-0.0275 3.41085,2.15469 7.0493,5.19652 7.97097,6.66451 9.45415,7.76101 10.7998,8.1338 0.77001,0.213 1.6862,0.62453 2.03353,0.90376 0.41168,0.33085 1.50269,0.4996 3.11803,0.45187 2.12462,-0.0637 2.61511,-0.2315 3.56976,-1.03939 0.6121,-0.51723 1.23258,-1.44513 1.40075,-2.07849 0.43771,-1.64224 0.27185,-4.64458 -0.31624,-5.60328 -0.88814,-1.44963 -0.51,-10.72172 0.81338,-19.74714 1.45382,-9.91514 1.44167,-10.55501 -0.22586,-13.10447 -1.44081,-2.2011 -2.31753,-2.74973 -5.24179,-3.25352 l -2.21427,-0.40661 z m 85.3598,0.18074 c -0.39953,0.0217 -0.72488,0.1128 -0.85864,0.22587 -0.19579,0.16455 -0.84215,1.16852 -1.44601,2.2594 l -1.08451,1.98826 0.45188,3.47954 c 0.24221,1.91408 0.73095,7.51779 1.08451,12.47183 0.57204,8.0158 0.71273,9.3162 1.5815,11.83906 0.53792,1.55979 1.49011,3.6179 2.07878,4.56403 1.29014,2.07473 4.15902,4.20716 6.00991,4.4284 0.74296,0.0897 1.63572,0.25739 1.94314,0.40662 0.93542,0.45592 3.42314,0.18871 5.60329,-0.63249 2.52893,-0.95436 6.76646,-4.54191 11.79394,-9.94131 3.93097,-4.22264 4.05605,-4.24909 4.33803,-0.67789 0.0781,0.99038 0.53386,2.68697 1.03939,3.75066 0.75438,1.58786 1.1863,2.04508 2.39488,2.53052 0.80933,0.3239 2.37521,0.59792 3.47939,0.63247 1.84264,0.0594 2.09309,-0.0144 3.07277,-1.03924 1.765,-1.85306 1.93071,-3.38756 0.99428,-9.48944 -0.94006,-6.1182 -1.1934,-9.41004 -1.12977,-15.27347 0.0419,-3.93372 0.0144,-4.34785 -0.8585,-6.10027 -1.0099,-2.04351 -1.94474,-3.00887 -3.52479,-3.61503 -1.3069,-0.50306 -4.68941,-0.72011 -5.82916,-0.36151 -0.51218,0.1611 -1.63283,1.36778 -2.66615,2.84677 l -1.76225,2.53052 0.0447,3.79576 0,3.79578 -1.58165,2.93728 c -1.19354,2.17942 -2.54642,3.86504 -5.2869,6.59728 -3.62687,3.61661 -8.35894,7.44911 -9.21831,7.50131 -0.82784,0.0492 -1.70701,-2.14529 -2.21427,-5.42253 -0.63436,-4.09784 -0.65547,-8.47232 -0.0447,-14.27935 0.26188,-2.48669 0.37394,-5.24322 0.22601,-6.10042 -0.37726,-2.18738 -1.95124,-4.13978 -3.93126,-4.88028 -1.38325,-0.51695 -3.50324,-0.83623 -4.69953,-0.76813 z m -160.37153,6.10028 c -0.30584,0 -0.60328,0.0174 -0.90376,0.0449 -2.43697,0.22037 -2.94249,0.90896 -3.47953,4.74464 -0.18987,1.3617 -1.3578,5.55644 -2.57564,9.30868 -1.21796,3.75239 -2.41035,7.58489 -2.66614,8.4953 -0.25537,0.91028 -0.98865,3.14262 -1.62677,4.97067 -1.81271,5.19883 -3.7949,13.22823 -4.51878,18.34623 -0.16758,1.18718 0.64232,3.40145 1.53654,4.24766 0.47544,0.45072 1.55691,0.90881 2.53051,1.03939 1.43415,0.19159 1.95384,0.0637 3.5245,-0.72301 2.92962,-1.4703 3.81934,-2.33487 4.15728,-4.11215 0.50885,-2.66906 0.95638,-2.8968 6.41682,-3.38917 2.62478,-0.23598 5.45188,-0.50349 6.23576,-0.58736 1.29678,-0.14027 1.4515,-0.0622 1.80752,0.90375 1.34304,3.63946 2.76043,5.26174 4.83516,5.42254 2.30349,0.17843 5.76755,-1.6256 6.55216,-3.38916 0.71389,-1.60304 0.51521,-2.89722 -0.90375,-5.78403 -2.66226,-5.41647 -3.82254,-7.97388 -4.83504,-10.89018 -0.5755,-1.65757 -1.40782,-3.93879 -1.85277,-5.10616 -0.44392,-1.16837 -1.13728,-3.07724 -1.53624,-4.24779 -0.39952,-1.16954 -1.43776,-4.0374 -2.34976,-6.37141 -0.91287,-2.33415 -1.91697,-5.37872 -2.21427,-6.73291 -0.64363,-2.93221 -0.85575,-3.35995 -2.57578,-4.69952 -1.19975,-0.93616 -3.41692,-1.50718 -5.55802,-1.49128 z m -57.25286,0.0897 c -1.17777,0 -2.3343,0.28471 -3.29879,0.90375 -2.01385,1.29259 -2.68306,3.07639 -2.62089,6.86855 0.0594,3.62659 -0.23324,10.92517 -0.94888,25.26004 -0.0795,1.55374 -0.0579,4.72484 0.0447,7.0493 0.10411,2.32288 0.16268,5.81585 0.0897,7.7723 -0.0983,2.66138 0.0144,3.90394 0.40677,4.88027 0.76581,1.88734 1.05992,2.16526 3.5245,3.16301 1.7984,0.72879 2.5765,0.8465 4.06704,0.63277 2.28572,-0.32882 3.4645,-1.01379 6.19067,-3.61502 2.01674,-1.9258 7.4721,-5.34793 8.63093,-5.42254 1.03997,-0.0694 4.12432,-1.96092 4.83503,-2.98254 0.53314,-0.76523 0.66849,-1.55316 0.58751,-2.93712 -0.15458,-2.62842 -0.80775,-3.97595 -2.30465,-4.74465 -0.7016,-0.36107 -1.2508,-0.78894 -1.26525,-0.99428 -0.0144,-0.20432 -0.24134,-0.37509 -0.49715,-0.3615 -0.25536,0.0159 -1.14191,-0.28154 -1.943,-0.63248 -1.93014,-0.84635 -3.06091,-0.72445 -4.47353,0.45173 -0.64374,0.53574 -1.32497,0.97981 -1.53651,0.99427 -0.21083,0.0145 -0.59822,0.3738 -0.81324,0.76813 -0.21618,0.39432 -1.2307,1.36185 -2.30466,2.16901 -2.35785,1.77252 -2.68017,1.56979 -2.62089,-1.85263 0.18668,-10.68905 1.47349,-23.13152 2.80166,-27.56469 0.71099,-2.37233 0.10986,-5.90219 -1.26526,-7.50104 -1.29549,-1.50732 -3.32554,-2.30739 -5.2869,-2.30464 z m -63.037046,2.62089 -0.180751,5.4678 4.880281,0.13592 -1.310374,44.01291 -2.30465,-0.0897 -2.349765,79.93727 -2.711268,-0.0911 -2.982393,100.99477 -7.546289,0.45188 0.406619,7.00404 29.959573,-1.76225 -0.45202,-7.00403 -7.004036,0.40661 2.937277,-99.639 -2.711261,-0.0911 2.349766,-79.89201 -2.304658,-0.0897 1.310378,-43.9678 4.835167,0.13593 0.135922,-5.46766 -14.957229,-0.45188 z m 122.187776,18.12037 c 0.29645,-0.12436 0.62468,0.1916 0.94889,0.90375 0.94308,2.0668 2.64894,7.84548 2.4854,8.35968 -0.0969,0.30583 -1.04071,0.78822 -2.16901,1.08451 -2.28977,0.60124 -2.15948,0.59286 -3.25352,0.22586 -0.95814,-0.32086 -1.08076,-1.13685 -0.49716,-3.11789 0.2253,-0.76349 0.57147,-2.03945 0.76827,-2.84689 0.71838,-2.94467 1.22318,-4.40427 1.71713,-4.60902 z m 527.477,29.77869 c -0.081,0.0145 -0.16774,0.0521 -0.27098,0.0897 -0.25319,0.0955 -0.97764,0.2603 -1.58164,0.36152 -1.18617,0.19766 -2.39807,0.76667 -2.80166,1.31037 -0.42598,0.57421 -0.79991,1.67043 -0.76825,2.16901 0.0174,0.27113 0.0883,0.69972 0.18074,0.99428 0.3563,1.13294 1.17026,4.19834 1.31052,4.97051 0.081,0.44537 0.2733,1.19252 0.40676,1.67202 0.13303,0.47949 0.27735,1.40104 0.36152,2.03352 0.14546,1.09361 0.2098,1.34436 0.58737,2.44 0.0883,0.25768 0.2367,0.99442 0.31638,1.62676 0.0795,0.63291 0.20027,1.26266 0.27098,1.446 0.75019,1.93434 1.47565,6.55057 1.22014,7.7272 -0.0911,0.42021 -0.0666,0.628 0.13592,1.03938 0.13449,0.27561 0.25233,0.64665 0.27098,0.81324 0.0188,0.16716 0.19507,0.4354 0.36151,0.63278 0.16716,0.19694 0.3359,0.48686 0.40676,0.63247 0.0709,0.14606 0.5463,0.68672 1.03924,1.22015 0.49339,0.53344 0.88959,1.06933 0.90377,1.17489 0.0144,0.10411 0.17598,0.40271 0.3615,0.63262 0.22963,0.28429 0.5194,0.41747 0.90376,0.49714 0.31147,0.0637 0.7217,0.22529 0.90375,0.36151 0.18234,0.13592 0.52562,0.29889 0.76826,0.31623 0.2425,0.0173 0.47141,0.0303 0.54225,0.0448 0.2869,0.0303 1.1302,-0.37726 1.80752,-0.85864 0.39548,-0.28111 0.80687,-0.54226 0.90375,-0.54226 0.0969,0 0.29629,-0.19912 0.45188,-0.45188 0.4396,-0.71403 0.81338,-1.36792 0.81338,-1.446 0,-0.039 0.13594,-0.35384 0.31625,-0.67775 0.18075,-0.32434 0.39837,-0.76609 0.45202,-0.99428 0.11858,-0.49844 -0.0174,-2.11681 -0.22602,-2.71126 -0.0824,-0.23454 -0.21039,-0.65244 -0.27111,-0.94887 -0.17975,-0.87788 -0.46736,-1.85668 -0.58738,-1.98826 -0.0622,-0.068 -0.12146,-0.23571 -0.13592,-0.36151 -0.0145,-0.1258 -0.25754,-0.48687 -0.54226,-0.81337 -0.50827,-0.58289 -1.03824,-1.88315 -1.08451,-2.66602 -0.0144,-0.18437 -0.0766,-0.41471 -0.18075,-0.49713 -0.11568,-0.0911 -0.24828,-0.48687 -0.31638,-1.0394 -0.0955,-0.78402 -0.32492,-1.64223 -0.90375,-3.29864 -0.0766,-0.22051 -0.19001,-0.94105 -0.27099,-1.58165 -0.0824,-0.63999 -0.24914,-1.44368 -0.36151,-1.8075 -0.14026,-0.45188 -0.24509,-1.21248 -0.27126,-2.39488 -0.0275,-1.22636 -0.0651,-1.80997 -0.18076,-1.94315 -0.0955,-0.11279 -0.16729,-0.35616 -0.13592,-0.63249 0.0347,-0.29744 0.0145,-0.6024 -0.13593,-0.85863 -0.12146,-0.21705 -0.25102,-0.65027 -0.27127,-0.94887 -0.0203,-0.29919 -0.15241,-0.74643 -0.27098,-1.0394 -0.11857,-0.29295 -0.21155,-0.6909 -0.226,-0.85864 -0.0419,-0.64549 -1.35608,-1.66132 -3.20827,-2.53052 -0.55932,-0.26215 -0.74817,-0.35962 -0.99427,-0.31623 z m 121.46478,1.53638 -37.59624,2.21413 3.29878,56.39436 39.67488,-2.3045 -0.22586,-4.11201 -35.56287,2.07848 -1.35563,-23.13615 18.61736,-1.0845 -0.226,-4.11202 -18.66249,1.08451 -1.22015,-20.96714 33.48423,-1.94299 -0.22601,-4.11217 z m -74.01745,3.11789 c -0.75208,-0.0246 -1.54825,0 -2.34977,0.0447 -10.52261,0.6173 -18.05024,7.81047 -17.53287,16.62911 0.24655,4.20876 2.38693,8.01118 5.82916,10.12206 3.13567,2.02818 6.78729,3.00495 13.87272,3.79577 7.18551,0.78534 9.34007,1.29433 11.83906,2.75652 2.90619,1.539 4.81015,4.62609 5.01591,8.13381 0.43497,7.41528 -6.27018,13.23548 -15.58971,13.78221 -9.11969,0.53502 -16.84455,-4.15858 -17.53286,-10.7547 -0.19347,-1.59769 -0.86659,-2.33587 -2.16902,-2.25939 -1.40334,0.0824 -2.04898,0.99789 -1.94314,2.80165 0.44681,7.61627 10.73763,14.98297 21.96126,14.32461 12.0256,-0.70581 20.22693,-8.21899 19.65662,-17.93963 -0.29947,-5.11079 -2.81899,-9.3019 -6.86855,-11.4777 -3.11773,-1.7277 -5.98937,-2.35816 -13.78219,-3.20841 -6.27179,-0.63726 -8.81734,-1.29606 -11.52297,-2.84676 -2.6047,-1.55663 -4.20094,-4.25937 -4.38314,-7.36553 -0.38797,-6.61419 5.47445,-11.89951 13.69197,-12.38161 7.81612,-0.45838 14.15817,3.68097 14.91184,9.67033 0.19347,1.59727 0.95666,2.38101 2.25952,2.30451 1.30243,-0.0766 1.95847,-1.043 1.85263,-2.84675 -0.28096,-4.7915 -5.9389,-12.91084 -17.21647,-13.28536 z m -68.27883,2.21426 c -1.38947,0.0145 -3.74025,0.26708 -3.97653,0.45188 -0.13592,0.10554 -0.60472,0.24554 -0.99412,0.3164 -0.38955,0.0709 -0.98068,0.2921 -1.35563,0.49699 -0.3751,0.20489 -0.90666,0.42902 -1.17489,0.49699 -0.47501,0.12003 -1.25268,0.58433 -1.49127,0.90376 -0.20692,0.27792 -0.69321,0.6011 -1.5815,1.03939 -0.4753,0.2344 -1.11371,0.628 -1.40075,0.85865 -0.28775,0.23049 -0.67152,0.4377 -0.85864,0.49698 -0.99211,0.31755 -1.66204,1.04113 -2.1239,2.2594 -0.30612,0.80889 -0.28848,0.75828 -0.85849,1.8075 -0.22992,0.42325 -0.45651,0.94584 -0.497,1.12963 -0.0404,0.18422 -0.20866,0.57392 -0.3615,0.90375 -0.29339,0.63234 -0.56047,1.71511 -0.81353,2.98253 -0.0824,0.41704 -0.20446,0.8066 -0.27097,0.90377 -0.0666,0.0969 -0.0926,0.34487 -0.0448,0.54224 0.0463,0.19666 0.0144,0.69655 -0.0897,1.08452 -0.14705,0.58215 -0.1472,1.07452 0,2.98224 0.26679,3.46001 0.65953,4.61812 2.4854,6.86855 0.40995,0.50595 1.11329,1.16475 1.53624,1.49126 0.42311,0.32652 0.87267,0.70682 1.0394,0.85851 1.29273,1.17676 2.52719,1.79579 4.06689,2.03352 l 0.0448,0 c 0.65215,0.0998 1.31789,0.17322 1.49113,0.13592 0.17338,-0.0375 0.81916,-0.13881 1.446,-0.22586 0.6267,-0.0868 1.26323,-0.24583 1.44601,-0.36151 0.18293,-0.11568 0.45001,-0.21184 0.58737,-0.22586 0.13882,-0.0145 0.43584,-0.20779 0.63278,-0.40677 0.19652,-0.19897 0.42903,-0.36149 0.49699,-0.36149 0.2036,-0.0145 1.25876,-0.76711 1.5815,-1.12977 0.16514,-0.18466 0.53083,-0.44712 0.76826,-0.58737 0.23744,-0.14027 0.64349,-0.55455 0.90376,-0.90375 0.26028,-0.34921 0.73226,-0.95524 1.08452,-1.35564 1.78031,-2.02427 3.09575,-3.66448 3.20825,-3.97653 0.0694,-0.19159 0.46402,-0.76783 0.85865,-1.31052 0.39475,-0.54225 0.67788,-1.06311 0.67788,-1.12962 0,-0.0666 0.16543,-0.25393 0.36151,-0.45188 0.19578,-0.19809 0.61267,-0.98184 0.90375,-1.71714 0.29021,-0.73543 0.79935,-1.75805 1.12963,-2.25938 0.44869,-0.68137 0.63927,-1.14973 0.81337,-1.943 0.1287,-0.5842 0.28487,-1.14857 0.3615,-1.26527 0.33678,-0.51608 0.38262,-1.1007 0.22601,-2.75652 -0.14459,-1.52149 -0.18118,-1.73925 -0.49713,-2.16901 -0.19233,-0.26145 -0.34704,-0.61614 -0.36151,-0.81339 -0.0144,-0.19724 -0.14315,-0.45114 -0.27112,-0.54225 -0.12869,-0.0897 -0.38218,-0.37306 -0.58751,-0.63264 -0.49468,-0.62683 -2.08516,-2.02744 -2.53052,-2.25938 -0.19463,-0.10122 -0.64708,-0.42787 -1.03925,-0.723 -0.39215,-0.29499 -0.79819,-0.54226 -0.90375,-0.54226 -0.10554,0 -0.37712,-0.0853 -0.58752,-0.22586 -0.20981,-0.14172 -0.77144,-0.32724 -1.26526,-0.40676 -0.49309,-0.0795 -1.06324,-0.20173 -1.26526,-0.27113 -0.13592,-0.0462 -0.48571,-0.0955 -0.94886,-0.0897 z m -22.50351,4.33804 -5.73878,0.31623 -30.00469,30.95372 -1.67203,-29.05568 -4.11201,0.22587 3.29864,56.43947 4.11215,-0.27098 -1.31052,-22.14216 7.68193,-7.7723 23.00051,28.19717 4.79005,-0.27098 -24.53704,-31.13445 24.49179,-25.48591 z m -60.2354,3.52464 -37.55099,2.21412 3.29878,56.43964 39.67474,-2.34977 -0.22586,-4.11202 -35.56286,2.0785 -1.3555,-23.13615 18.61737,-1.08452 -0.226,-4.11201 -18.66263,1.08452 -1.22,-20.92188 33.48423,-1.98826 -0.27128,-4.11217 z m -245.14369,0.22588 c -0.21849,0.0217 -1.12702,0.0983 -1.98825,0.18074 -1.07367,0.1041 -1.59091,0.21198 -1.67189,0.3615 -0.0651,0.12146 -0.2746,0.248 -0.45202,0.27127 -0.17742,0.0231 -0.26635,-0.0158 -0.22586,-0.0911 0.0404,-0.0752 0,-0.13593 -0.0897,-0.13593 -0.0955,0 -0.22918,0.13593 -0.27112,0.27113 -0.0419,0.13303 -0.14488,0.17887 -0.22586,0.13592 -0.081,-0.0434 -0.13592,0.016 -0.13592,0.0897 0,0.0752 -0.23007,0.14473 -0.49714,0.18075 -0.26651,0.0361 -0.53286,0.10986 -0.63249,0.13592 -0.27546,0.0723 -0.58679,0.36556 -0.49714,0.49713 0.0447,0.0637 0,0.21605 -0.13592,0.36152 -0.19305,0.21675 -0.29036,1.07524 -0.18075,1.5815 0.0159,0.0651 -0.0477,0.0897 -0.13592,0.0897 -0.0883,0 -0.11713,0.1041 -0.0897,0.18075 0.026,0.0766 -0.0969,0.27835 -0.27114,0.45187 -0.17424,0.17367 -0.40892,0.56915 -0.49698,0.90376 -0.0897,0.33461 -0.25653,0.69481 -0.40677,0.81338 -0.27503,0.22096 -0.33822,0.30092 -0.31624,0.67789 0,0.11858 -0.16875,0.44219 -0.40676,0.72302 -0.23801,0.27965 -0.49453,0.66949 -0.54225,0.85848 -0.0477,0.18914 -0.11858,0.3615 -0.18076,0.3615 -0.19259,0.0144 -0.61122,0.9668 -0.49699,1.12977 0.0579,0.0838 0,0.1663 -0.13592,0.18075 -0.20042,0.0144 -0.45188,0.47285 -0.45188,0.85849 -9.6e-4,0.0594 -0.0347,0.16225 -0.0897,0.22602 -0.0579,0.0622 -0.094,0.2078 -0.0447,0.31624 0.0492,0.10843 0,0.25738 -0.13594,0.31625 -0.23106,0.1041 -0.85314,1.2735 -0.90374,1.71728 -0.0145,0.12291 -0.0969,0.30178 -0.18076,0.36149 -0.0854,0.0594 -0.1634,0.27794 -0.18076,0.497 -0.0173,0.21921 -0.0637,0.4996 -0.13592,0.63263 -0.0666,0.13303 -0.1258,0.50451 -0.0897,0.81338 0.0492,0.42036 0.0376,0.48788 -0.0911,0.31624 -0.12001,-0.15993 -0.16629,-0.18538 -0.18074,-0.0447 0,0.10986 -0.0448,0.2892 -0.0448,0.3615 0,0.0723 -0.12581,0.24351 -0.27113,0.40662 -0.14459,0.16369 -0.23136,0.37972 -0.18074,0.45202 0.0492,0.0709 0.0404,0.16514 -0.0448,0.22587 -0.0854,0.0608 -0.14994,0.23136 -0.13592,0.40661 0.0145,0.17613 -0.0477,0.31884 -0.13592,0.27128 -0.0883,-0.0476 -0.22645,0.11279 -0.27128,0.3615 -0.0433,0.24741 -0.14633,0.51839 -0.22586,0.63249 -0.0795,0.11567 -0.0651,0.22601 0,0.22601 0.0622,0 0.0275,0.0666 -0.0447,0.18074 -0.0709,0.11424 -0.0694,0.39231 -0.0447,0.63263 0.026,0.24033 -0.0158,0.45188 -0.0897,0.45188 -0.0738,0 -0.14995,0.14026 -0.13592,0.27113 0.0144,0.13159 -0.0506,0.22587 -0.13594,0.22587 -0.0853,0 -0.10986,0.1287 -0.0447,0.27128 0.0752,0.16107 0.0723,0.24436 -0.0447,0.18074 -0.23627,-0.12869 -0.33157,0.0522 -0.40661,0.81323 -0.0347,0.34256 -0.1128,0.75786 -0.18077,0.90376 -0.0608,0.14678 -0.0637,0.3054 0,0.36151 0.0622,0.0579 -0.0188,0.14314 -0.13592,0.22601 -0.11712,0.0824 -0.19521,0.40878 -0.18074,0.723 0.0145,0.31422 -0.0203,0.58751 -0.0897,0.58751 -0.0694,0 -0.1041,0.0969 -0.0447,0.18076 0.0607,0.0838 0.0347,0.13592 -0.0897,0.13592 -0.1258,0.0144 -0.28169,0.20807 -0.31638,0.45188 -0.0347,0.24365 -0.13305,0.6799 -0.22588,0.94887 -0.0926,0.26968 -0.15298,0.56756 -0.13592,0.63277 0.0174,0.0651 -0.0505,0.0897 -0.13592,0.0897 -0.10122,0 -0.0709,0.14836 0.0447,0.40676 0.10411,0.23339 0.0897,0.36396 0,0.31624 -0.1861,-0.0998 -0.33302,0.50683 -0.18075,0.723 0.0594,0.0854 0.0332,0.18075 -0.0447,0.18075 -0.18596,0.0145 -0.45362,1.16014 -0.31625,1.35579 0.0622,0.0883 0.0289,0.10842 -0.0897,0.0447 -0.13447,-0.0752 -0.18276,-0.026 -0.13592,0.18077 0.039,0.166 -0.0521,0.49857 -0.18075,0.723 -0.1287,0.22442 -0.27575,0.71043 -0.31624,1.0845 -0.0404,0.37408 -0.14026,0.6779 -0.22602,0.6779 -0.0868,0 -0.11567,0.17655 -0.0447,0.36149 0.0853,0.21952 0.0752,0.29095 -0.0447,0.22587 -0.11424,-0.0608 -0.11424,-0.0174 -0.0447,0.13592 0.0608,0.13304 0.0174,0.3511 -0.0897,0.497 -0.26636,0.36194 -0.36946,0.90332 -0.22587,1.35563 0.0404,0.12869 -0.0246,0.24178 -0.13592,0.22587 -0.11135,-0.0144 -0.19521,0.0492 -0.18076,0.18074 0.0144,0.1316 -0.0217,0.27128 -0.0897,0.27128 -0.0694,0 -0.12146,0.16297 -0.13592,0.36151 -0.0318,0.71895 -0.11279,0.96997 -0.27127,1.08451 -0.0883,0.0637 -0.18105,0.34428 -0.22587,0.63247 -0.0448,0.28877 -0.1757,0.5424 -0.27114,0.54226 -0.0955,0 -0.0983,0.0433 -0.0447,0.0911 0.0535,0.0462 0.0144,0.26577 -0.0897,0.49698 -0.12291,0.2762 -0.14936,0.53647 -0.0447,0.76826 0.0868,0.19348 0.14026,0.39549 0.0897,0.45175 -0.0492,0.0565 -0.0145,0.1041 0.13592,0.0911 0.14315,-0.0144 0.39679,0.20722 0.54226,0.45174 0.14531,0.24495 0.39866,0.45087 0.54224,0.49714 0.14316,0.0462 0.18466,0.18003 0.13593,0.27113 -0.0492,0.0911 0.0666,0.14994 0.22601,0.13592 0.20953,-0.0145 0.23193,0.0332 0.0897,0.13593 -0.1417,0.10266 -0.0738,0.20027 0.22601,0.31638 0.22747,0.0868 0.40677,0.20303 0.40677,0.27098 0,0.068 0.21791,0.30092 0.45174,0.54225 0.23425,0.24236 0.40675,0.42253 0.40675,0.36151 0,-0.0608 0.15401,0.0144 0.36151,0.18075 0.20736,0.17237 0.48109,0.27518 0.63262,0.22602 0.16515,-0.055 0.24005,-0.0203 0.18075,0.0897 -0.0594,0.10986 0.0332,0.11134 0.18077,0.0447 0.13158,-0.0594 0.43163,-0.0188 0.67788,0.0911 0.24583,0.10986 0.49915,0.15241 0.58736,0.0897 0.094,-0.0666 0.15112,-0.0203 0.0897,0.0911 -0.1041,0.19319 0.0868,0.24727 0.85849,0.18076 0.72402,-0.0622 1.09911,-0.18913 1.08451,-0.31639 0,-0.068 0.094,-0.12146 0.22601,-0.13592 0.13158,0 0.22601,-0.11568 0.22601,-0.22586 0,-0.12292 0.0578,-0.13883 0.13592,-0.0448 0.2075,0.25016 0.70451,0.21386 0.58751,-0.0448 -0.0594,-0.13303 -0.0144,-0.19058 0.0897,-0.13592 0.22948,0.12292 0.97143,-0.10986 0.85863,-0.27127 -0.0492,-0.068 0.0651,-0.30207 0.22588,-0.49699 0.16267,-0.19507 0.27127,-0.4059 0.27127,-0.49699 0,-0.0926 0.0231,-0.1501 0.0897,-0.13592 0.0666,0.0144 0.27778,-0.0174 0.45202,-0.0448 0.18899,-0.0303 0.21748,-0.094 0.0897,-0.13593 -0.15529,-0.0522 -0.11568,-0.19954 0.13593,-0.58736 0.5528,-0.85402 1.0485,-2.39546 0.85864,-2.66616 -0.0492,-0.0709 0.0303,-0.35167 0.13592,-0.58736 0.14591,-0.32421 0.14548,-0.38291 0,-0.31639 -0.10555,0.0476 -0.21154,-0.0492 -0.22601,-0.18075 0,-0.13158 0.0637,-0.17424 0.13594,-0.13594 0.0738,0.039 0.0651,-0.32476 0,-0.7681 -0.0694,-0.46852 -0.0434,-0.77073 0.0447,-0.72302 0.19391,0.10411 0.1041,-0.60443 -0.0897,-0.723 -0.0795,-0.0492 -0.0666,-0.18768 0.0448,-0.31638 0.11134,-0.12869 0.19521,-0.36672 0.18075,-0.54226 -0.0144,-0.17439 0.0694,-0.4325 0.18075,-0.58737 0.1128,-0.15486 0.14677,-0.3709 0.0897,-0.45188 -0.0565,-0.081 0.0188,-0.17237 0.13592,-0.226 0.12435,-0.055 0.17756,-0.29601 0.13592,-0.54226 -0.0926,-0.54876 0.30814,-1.0741 0.67788,-0.90375 0.1835,0.0853 0.37915,0 0.67775,-0.22588 0.24163,-0.17901 0.54731,-0.27242 0.63263,-0.22586 0.0853,0.0449 0.55352,0.0897 1.03939,0.0897 0.73805,-0.0145 0.94684,-0.0752 1.26526,-0.40663 0.20866,-0.21877 0.3897,-0.39475 0.45173,-0.36149 0.13159,0.0709 3.54648,0.11134 4.20254,0.0448 0.24322,-0.0246 0.40488,0.0145 0.3615,0.0912 -0.0433,0.081 0.0853,0.17814 0.27113,0.22585 0.20345,0.0522 0.3145,0.17744 0.27112,0.3164 -0.0404,0.12581 0,0.22586 0.0897,0.22586 0.0853,0 0.16049,0.2879 0.18074,0.63263 0.0203,0.34472 0.11569,0.79835 0.22586,1.03925 0.10986,0.24105 0.22645,0.57204 0.27128,0.723 0.0447,0.15168 0.16369,0.43858 0.22587,0.63278 0.0637,0.19347 0.13158,0.71563 0.18074,1.17473 0.0492,0.45968 0.16702,0.89697 0.22587,0.94902 0.0521,0.0521 0.0549,0.16991 0,0.27112 -0.15254,0.28024 -0.13881,1.09694 0.0449,1.31038 0.11134,0.13159 0.1041,0.21155 -0.0449,0.22602 -0.13158,0.0144 -0.0318,0.1618 0.22601,0.36149 0.23325,0.18105 0.54226,0.48933 0.67775,0.723 0.13593,0.23382 0.2895,0.45188 0.3615,0.45188 0.0738,0 0.13593,0.055 0.13593,0.18076 0.0174,0.29802 0.4993,0.75843 0.67789,0.63263 0.0781,-0.055 0.13159,0 0.0897,0.13592 -0.0838,0.26578 0.48282,0.60472 0.67789,0.40676 0.0651,-0.0666 0.094,-0.055 0.0447,0.0448 -0.0492,0.0998 0.094,0.27591 0.31639,0.36151 0.22267,0.0853 0.3774,0.24828 0.36149,0.3615 -0.0158,0.11134 0.0332,0.16152 0.13592,0.13592 0.10267,-0.026 0.20043,0.11569 0.18076,0.27113 -0.0477,0.36006 0.37119,0.8747 0.58738,0.723 0.0897,-0.0622 0.13592,-0.0535 0.13592,0.0449 0,0.0983 0.0969,0.14965 0.18075,0.0911 0.0838,-0.0594 0.1806,-0.0579 0.18074,0.0447 0,0.10123 0.0969,0.14822 0.22587,0.0897 0.12725,-0.0579 0.22586,-0.0651 0.22586,0 0.0144,0.14534 0.76365,0.1128 0.90376,-0.0447 0.055,-0.0622 0.23889,-0.0462 0.36152,0.0447 0.16859,0.12437 0.1952,0.11569 0.18074,-0.0447 0,-0.11857 0.12147,-0.0536 0.27128,0.13592 0.32216,0.40749 0.43698,0.41977 0.27098,0.0448 -0.10843,-0.24625 -0.10267,-0.24581 0.18074,-0.0448 0.25233,0.17439 0.30121,0.17511 0.18075,0 -0.11135,-0.16195 -0.10266,-0.19767 0.0911,-0.13592 0.14864,0.0476 0.49669,-0.11857 0.81322,-0.36151 0.30526,-0.23382 0.72952,-0.45939 0.90377,-0.49698 0.17525,-0.0376 0.35327,-0.13593 0.40676,-0.22602 0.0535,-0.0897 0.33302,-0.26781 0.63263,-0.40662 0.29946,-0.13882 0.71158,-0.4231 0.90375,-0.63263 0.19218,-0.2091 0.46027,-0.35687 0.58737,-0.31623 0.14171,0.0447 0.19551,-0.0246 0.18075,-0.18076 -0.0144,-0.14171 0.0969,-0.25681 0.22602,-0.27127 0.33475,-0.0188 0.61166,-0.66286 0.54226,-1.31037 -0.0332,-0.30569 -0.10843,-0.78722 -0.13594,-1.08452 -0.0275,-0.29715 -0.1511,-0.65561 -0.31638,-0.81337 -0.16527,-0.15776 -0.34705,-0.4905 -0.3615,-0.723 -0.0144,-0.23253 -0.0795,-0.4244 -0.18075,-0.45188 -0.10123,-0.0275 -0.13448,-0.14317 -0.0897,-0.22587 0.0447,-0.0824 -0.039,-0.13592 -0.13592,-0.13592 -0.0983,0 -0.25623,-0.19797 -0.3615,-0.45188 -0.10554,-0.25393 -0.32607,-0.49888 -0.49714,-0.54226 -0.17091,-0.0433 -0.30193,-0.23743 -0.31638,-0.40677 -0.0144,-0.16946 -0.0637,-0.27097 -0.13593,-0.27097 -0.0723,0 -0.13593,-0.17555 -0.13593,-0.3615 0.0145,-0.67978 -0.2795,-1.46308 -0.49713,-1.4009 -0.16339,0.0476 -0.17425,0 -0.0448,-0.18075 0.1287,-0.17598 0.094,-0.37827 -0.226,-0.90375 -0.22877,-0.37641 -0.47096,-0.86631 -0.497,-1.08451 -0.13159,-1.10692 -0.14547,-1.36503 -0.27127,-1.44601 -0.0752,-0.0492 -0.22038,-0.35819 -0.27099,-0.723 -0.0521,-0.3647 -0.15703,-0.7823 -0.27126,-0.90376 -0.16109,-0.17627 -0.17338,-0.21156 0,-0.22587 0.17265,-0.0144 0.19521,-0.0709 0,-0.18075 -0.13593,-0.0781 -0.18581,-0.12146 -0.0897,-0.13592 0.11424,-0.0145 0.1258,-0.24973 0,-0.76812 -0.0998,-0.41227 -0.24986,-1.06109 -0.31639,-1.44601 -0.0666,-0.38566 -0.19158,-0.76899 -0.27112,-0.85864 -0.0795,-0.0897 -0.15285,-0.32304 -0.13592,-0.49714 0.0174,-0.17338 -0.0434,-0.39722 -0.13594,-0.497 -0.10986,-0.12147 -0.11133,-0.19304 0,-0.27112 0.10987,-0.0766 0.0361,-0.30483 -0.22586,-0.67789 -0.21878,-0.3093 -0.34819,-0.63148 -0.31639,-0.67774 0.16051,-0.22819 0.18683,-1.09435 0.0448,-1.22001 -0.0883,-0.0795 -0.21329,-0.44305 -0.27098,-0.81352 -0.0579,-0.36974 -0.18914,-0.86139 -0.31639,-1.08451 -0.12725,-0.22224 -0.22124,-0.59098 -0.18075,-0.81323 0.0404,-0.22255 -0.0173,-0.60183 -0.13592,-0.85865 -0.11858,-0.25681 -0.23643,-0.78835 -0.27098,-1.17487 -0.0361,-0.40445 -0.15473,-0.83536 -0.31639,-0.99414 -0.15473,-0.15212 -0.22226,-0.27112 -0.13592,-0.27112 0.17612,-0.0144 0.14575,-0.49612 -0.0447,-0.76827 -0.068,-0.0969 -0.0173,-0.17959 0.0897,-0.22587 0.15704,-0.068 0.13159,-0.18898 -0.0447,-0.45188 -0.13014,-0.19535 -0.14026,-0.31624 -0.0447,-0.31624 0.0883,0 0.13592,-0.0883 0.13592,-0.18074 0,-0.0926 -0.0752,-0.11714 -0.18075,-0.0448 -0.12726,0.0897 -0.13882,0.0579 0,-0.13593 0.11712,-0.15457 0.14316,-0.37856 0.0897,-0.49713 -0.0536,-0.11857 -0.0332,-0.2733 0.0447,-0.3615 0.0912,-0.10123 0.0637,-0.32809 -0.0897,-0.58738 -0.13447,-0.22528 -0.30801,-0.37711 -0.3615,-0.31637 -0.0535,0.0607 -0.0766,-0.0303 -0.0897,-0.22587 -0.0144,-0.19609 -0.13013,-0.4782 -0.22601,-0.63278 -0.094,-0.15428 -0.18971,-0.4967 -0.22587,-0.76812 -0.0361,-0.27127 -0.10698,-0.49713 -0.18074,-0.49713 -0.0752,0 -0.0926,-0.0476 -0.0447,-0.13593 0.13015,-0.24149 -0.7376,-2.40429 -0.99427,-2.48526 -0.12291,-0.039 -0.17453,-0.10698 -0.13594,-0.18075 0.11714,-0.21748 -0.14169,-0.6656 -0.31623,-0.54225 -0.0969,0.068 -0.10842,0.0275 -0.0447,-0.0911 0.0579,-0.10842 -0.0144,-0.27213 -0.13592,-0.40661 -0.1258,-0.13448 -0.17468,-0.25667 -0.13592,-0.27113 0.1041,-0.0289 -0.42658,-1.03925 -0.54225,-1.03925 -0.0535,0 -0.10411,-0.14748 -0.0897,-0.36149 0.0158,-0.30382 -0.026,-0.35645 -0.226,-0.27127 -0.13449,0.0607 -0.23961,0.0289 -0.18076,-0.0448 0.15719,-0.19507 -0.41529,-0.97099 -0.99398,-1.35563 -1.24705,-0.82798 -3.1698,-1.42316 -4.29292,-1.31052 z m 327.65673,0.36149 c 0.33721,-0.0637 0.64636,-0.0246 0.76812,0.0911 0.0897,0.0853 0.2237,0.13592 0.31639,0.13592 0.0926,0 0.22804,0.13882 0.31624,0.31624 0.13159,0.2668 0.13881,0.49974 -0.0897,1.22014 -0.15285,0.48167 -0.3268,1.03057 -0.3615,1.22014 -0.0824,0.44263 -0.70941,1.65742 -0.85865,1.67188 -0.0622,0 -0.0897,0.0737 -0.0897,0.18076 0,0.10554 -0.15299,0.39809 -0.3164,0.63262 -0.1634,0.23454 -0.47182,0.73227 -0.67788,1.08451 -0.58593,1.00368 -1.49157,2.28845 -2.12376,3.02751 -2.10351,2.45938 -2.65155,3.05166 -2.98239,3.25352 -0.69235,0.42311 -1.19151,0.29672 -1.08452,-0.31624 0.068,-0.39419 0.41444,-0.88756 1.17489,-1.76226 0.38926,-0.44797 0.47733,-0.76103 0.81339,-2.34976 0.28413,-1.34349 0.46171,-1.94589 0.723,-2.30465 0.19434,-0.26693 0.50755,-0.91634 0.67789,-1.44601 0.16991,-0.52967 0.43612,-1.11039 0.58737,-1.31037 0.15182,-0.20042 0.27112,-0.45853 0.27112,-0.54225 -0.0188,-0.32825 1.35043,-2.05579 1.89789,-2.39503 0.32319,-0.20013 0.70175,-0.34257 1.0394,-0.40677 z m -138.72666,2.71127 -37.59624,2.21428 3.29879,56.43961 39.67488,-2.34976 -0.22586,-4.11216 -35.56286,2.07864 -1.35564,-23.13616 18.61736,-1.08449 -0.226,-4.11202 -18.66249,1.0845 -1.22015,-20.92201 33.48423,-1.98827 -0.22602,-4.11216 z m -71.62257,4.29291 c -0.59112,-0.0144 -1.15463,0.0145 -1.76239,0.0447 l -20.46999,1.17504 3.29863,56.43947 25.26004,-1.49113 c 9.11927,-0.53531 16.12879,-7.89505 15.63498,-16.31286 -0.39389,-6.71425 -4.96213,-11.26961 -13.55633,-13.78235 5.72432,-3.55342 8.11732,-7.40617 7.81755,-12.51694 -0.4523,-7.70375 -7.35584,-13.35029 -16.22249,-13.55634 z m -57.20773,3.34389 c -0.59807,-0.0203 -1.20005,0.0144 -1.80752,0.0448 l -19.47585,1.12963 3.34374,56.43948 4.11216,-0.27099 -1.49112,-25.12441 14.77633,-0.90377 20.78638,24.03992 4.78991,-0.27128 -20.96714,-25.12441 c 9.1317,-3.75296 13.44167,-8.85001 13.0592,-15.36385 -0.46257,-7.89145 -8.15448,-14.29553 -17.12609,-14.59558 z m 57.11736,0.72301 c 6.67695,0.12869 11.88099,4.17607 12.2007,9.62507 0.36454,6.21293 -5.4902,10.97797 -14.00821,11.47756 l -14.73122,0.85864 -1.26526,-20.92202 16.44836,-0.99398 c 0.45723,-0.0275 0.91054,-0.0536 1.35563,-0.0448 z m -57.34337,3.38901 c 6.71931,0.22487 12.90939,4.98223 13.24009,10.61921 0.37625,6.41362 -7.35064,12.1219 -17.17136,12.69769 l -11.38733,0.67789 -1.35563,-23.04577 15.31874,-0.90375 c 0.45057,-0.026 0.90765,-0.0608 1.35549,-0.0448 z m -61.54563,1.53653 c 0.0404,-0.0318 0.0795,0.0145 0.0897,0.13593 0.0217,0.24423 0.039,0.26578 0.13593,0.0897 0.0955,-0.17265 0.19174,-0.0795 0.40662,0.31639 0.15718,0.28761 0.32564,0.63957 0.36149,0.81324 0.0361,0.17409 0.10555,0.39157 0.18077,0.49714 0.0738,0.10554 0.094,0.2704 0.0447,0.3615 -0.0476,0.0912 -0.0144,0.18075 0.0897,0.18075 0.0984,0 0.13448,0.0536 0.0897,0.13593 -0.0448,0.0824 -7.2e-4,0.29252 0.0897,0.49699 0.10266,0.22701 0.12725,0.50726 0.0447,0.67774 -0.0926,0.18987 -0.0752,0.27128 0.0447,0.27128 0.30121,-0.0188 0.1514,0.84562 -0.18075,1.03924 -0.17149,0.0998 -0.4487,0.33373 -0.63263,0.54226 -0.18393,0.20851 -0.43235,0.40676 -0.54226,0.40676 -0.13303,0 -0.15328,-0.068 0,-0.18075 0.19637,-0.14027 0.19319,-0.1501 -0.0447,-0.13594 -0.15329,0.0145 -0.27127,-0.0433 -0.27127,-0.13592 -0.0145,-0.20475 -0.66272,-0.0969 -0.81325,0.13592 -0.0651,0.0998 -0.12146,0.0404 -0.13592,-0.0897 -0.0144,-0.15328 -0.0926,-0.16528 -0.22586,-0.0449 -0.10411,0.0955 -0.30714,0.24553 -0.49714,0.31639 -0.31436,0.11424 -0.35688,0.0868 -0.31639,-0.31639 0.094,-0.91489 0.18047,-1.43097 0.31639,-1.62675 0.0766,-0.10986 0.16629,-0.36931 0.18074,-0.58738 0.0144,-0.21806 0.13448,-0.52534 0.27114,-0.67788 0.13592,-0.15212 0.27575,-0.46171 0.31624,-0.67775 0.0419,-0.21603 0.11424,-0.40677 0.18075,-0.40677 0.0666,0 0.11134,-0.11857 0.0911,-0.27097 -0.0188,-0.15328 0.0492,-0.28458 0.13592,-0.31639 0.0868,-0.0318 0.27359,-0.29846 0.40677,-0.58737 0.094,-0.20664 0.13881,-0.32998 0.18074,-0.36151 z m -51.33333,0.90375 -6.82342,0.40663 -17.75873,57.65962 4.11201,-0.22586 5.8293,-19.25016 26.66064,-1.5815 8.22434,18.43663 4.29276,-0.27113 -24.5369,-55.17423 z m -41.43727,2.44001 -4.11203,0.226 1.49114,25.07916 -27.06757,1.58164 -1.49112,-25.03403 -4.11216,0.226 3.34404,56.39437 4.11203,-0.22601 -1.62677,-27.24816 27.06741,-1.58165 1.58165,27.24832 4.11216,-0.22602 -3.29878,-56.43962 z m 38.77112,1.85277 12.92371,28.69417 -23.5429,1.40089 9.08281,-30.00469 1.53638,-0.0897 z m -111.11685,1.12972 c -0.45463,5.9e-4 -0.89696,0.0203 -1.31037,0.0449 -6.71425,0.39389 -12.49192,3.3303 -16.71948,8.40493 -4.03856,4.86234 -6.41378,12.05262 -6.05517,18.16549 l 0.49715,8.31454 c 0.79327,13.52858 13.84539,25.11053 27.47417,24.31104 6.41319,-0.37626 12.35022,-3.23588 16.99061,-8.13381 2.46385,-2.55784 3.58364,-4.33007 3.5245,-5.33215 -0.0637,-1.10229 -0.92112,-1.83268 -2.12376,-1.7624 -0.70145,0.0419 -1.10822,0.24221 -1.76224,1.08451 -5.03559,6.73103 -9.98557,9.67134 -16.90039,10.07695 -11.82474,0.69364 -22.4305,-9.07719 -23.13614,-21.10278 l -0.40662,-7.0944 c -0.69957,-11.9251 7.72011,-22.16747 18.84324,-22.81977 8.91913,-0.5236 17.27055,4.30376 18.03,10.39305 0.19578,1.59784 0.9214,2.37521 2.1239,2.30465 1.40276,-0.0824 2.04885,-1.04315 1.94299,-2.8469 -3.10934,-11.22421 -14.18678,-14.02152 -21.01239,-14.00807 z m -55.85211,3.34376 c -0.75178,-0.0246 -1.50283,0 -2.30451,0.0447 -10.52217,0.61731 -18.05024,7.76536 -17.53286,16.58386 0.24684,4.20919 2.38693,8.01132 5.8293,10.12205 3.13539,2.02848 6.78713,3.00525 13.87258,3.79578 7.18552,0.78562 9.33977,1.29448 11.83921,2.75653 2.90575,1.53898 4.81014,4.62651 5.01591,8.1338 0.43481,7.41571 -6.27033,13.23561 -15.58986,13.78236 -9.11926,0.53458 -16.84427,-4.11348 -17.53286,-10.70959 -0.19305,-1.59769 -0.82105,-2.381 -2.12376,-2.3045 -1.40335,0.0824 -2.04899,1.04301 -1.94315,2.84676 0.44682,7.61628 10.69266,14.93771 21.91601,14.27934 12.02559,-0.7055 20.27233,-8.21883 19.70188,-17.93962 -0.29947,-5.11035 -2.8644,-9.30189 -6.91366,-11.47756 -3.11803,-1.72813 -5.98994,-2.3583 -13.78221,-3.2084 -6.27249,-0.6377 -8.81747,-1.29606 -11.52296,-2.84691 -2.60512,-1.5562 -4.15582,-4.25907 -4.33802,-7.36553 -0.38797,-6.61376 5.42948,-11.89936 13.64671,-12.38146 7.81655,-0.45852 14.20371,3.68096 14.95709,9.67019 0.19623,1.59755 0.91171,2.38114 2.21427,2.3045 1.30286,-0.0766 1.95848,-1.04272 1.85278,-2.84675 -0.2814,-4.79137 -5.98229,-12.86631 -17.26189,-13.2401 z m 588.70652,1.49128 c -0.13736,4.3e-4 -0.27503,0.0318 -0.49699,0.0897 -0.33302,0.0868 -0.67096,0.18711 -0.72301,0.22587 -0.0536,0.0404 -0.22268,0.0145 -0.36149,-0.0897 -0.37321,-0.26723 -0.64349,-0.22022 -0.90377,0.18075 -0.16801,0.25811 -0.46272,0.44161 -1.0845,0.63249 -0.47184,0.14502 -0.93817,0.29079 -1.03925,0.36149 -0.88972,0.61716 -1.99953,1.24546 -2.30464,1.26527 -0.20461,0.0144 -0.58347,0.0838 -0.85865,0.18075 -0.73456,0.25956 -1.93447,0.50654 -3.93126,0.76826 -2.037,0.26694 -2.28267,0.30743 -5.1063,1.12977 -0.31652,0.0911 -1.04228,0.18682 -1.62675,0.22587 -0.5839,0.039 -1.31428,0.18769 -1.62676,0.31639 -0.68628,0.2811 -2.93569,0.69407 -6.00991,1.12962 -1.25311,0.17742 -2.43406,0.39115 -2.62089,0.45188 -0.18682,0.0608 -0.73039,0.0535 -1.17489,0 -0.52518,-0.0637 -1.09809,-0.0231 -1.67187,0.0897 -1.23996,0.24625 -1.41796,0.27517 -2.03353,0.49714 -0.29932,0.10698 -0.66111,0.17165 -0.76826,0.13592 -0.10698,-0.0375 -0.44103,-0.0709 -0.76812,-0.0897 -0.93137,-0.0594 -1.38772,-0.21414 -2.03337,-0.63262 -0.92169,-0.5972 -2.52647,-1.23374 -2.8469,-1.12977 -0.15299,0.0522 -0.59503,0.0506 -0.94888,0 -0.55195,-0.0795 -0.65301,-0.0433 -0.85863,0.18075 -0.13159,0.1446 -0.41314,0.29816 -0.63264,0.36151 -0.21964,0.0637 -0.46561,0.20504 -0.54225,0.31638 -0.10122,0.14735 -0.35659,0.1952 -0.94902,0.18075 -0.62482,0 -0.87541,0.0536 -0.99399,0.22587 -0.0838,0.12291 -0.35369,0.34906 -0.63277,0.49713 -0.35485,0.18842 -0.59127,0.41819 -0.723,0.76812 -0.10267,0.27575 -0.28226,0.55166 -0.40663,0.63279 -0.28413,0.18522 -0.37379,0.925 -0.27112,2.25924 0.10554,1.3646 0.66691,3.08664 1.12977,3.61502 0.0983,0.11279 0.12291,0.24986 0.0897,0.31638 -0.0883,0.17599 0.47632,0.96333 0.6779,0.94888 0.094,0 0.27661,0.1388 0.45187,0.31639 0.19406,0.1968 0.4591,0.33069 0.67775,0.31637 0.19781,-0.0144 0.40676,0.0158 0.40676,0.0897 0,0.0738 0.14315,0.18987 0.31624,0.22602 0.1741,0.0361 0.38869,0.2062 0.49713,0.36149 0.10843,0.15546 0.49064,0.38001 0.85865,0.49701 0.36801,0.11712 0.72474,0.25131 0.76812,0.31639 0.0433,0.0608 0.50105,0.0766 1.03939,0.0447 0.82655,-0.0492 1.08856,-0.10555 1.76225,-0.497 0.54804,-0.31827 0.90607,-0.45289 1.12977,-0.40677 0.32839,0.068 3.23299,-0.58447 5.42253,-1.21999 0.65548,-0.19044 1.58238,-0.40748 2.03338,-0.49699 0.45101,-0.0911 0.94483,-0.27374 1.12962,-0.3615 0.18539,-0.0897 0.90159,-0.23889 1.58164,-0.36151 2.63291,-0.47386 3.04372,-0.55237 3.38916,-0.723 0.19595,-0.0983 0.62453,-0.18075 0.94888,-0.18075 0.97316,-0.0188 2.95434,-0.35167 3.52465,-0.58753 0.29368,-0.12145 0.86196,-0.24798 1.26526,-0.27111 0.40328,-0.0231 0.75119,-0.10842 0.81337,-0.18076 0.0622,-0.0723 0.43077,-0.16672 0.81339,-0.22586 1.39785,-0.21922 3.11427,-0.58448 3.47953,-0.723 0.20561,-0.0781 0.9091,-0.19161 1.53624,-0.27128 0.62742,-0.0795 1.56863,-0.25276 2.1239,-0.36151 0.55526,-0.10842 1.75936,-0.26417 2.66614,-0.36149 0.90665,-0.0969 1.73839,-0.24395 1.85264,-0.31625 0.30973,-0.19796 1.19093,-0.22225 1.94314,-0.0447 0.3667,0.0868 0.88279,0.20577 1.12963,0.22602 0.24683,0.0203 0.79602,0.0853 1.22014,0.18074 0.97967,0.21922 1.81894,0.15964 2.16901,-0.13592 0.14951,-0.12725 0.652,-0.41182 1.08451,-0.6779 0.54442,-0.33532 0.90447,-0.73181 1.22,-1.22014 0.6841,-1.05819 0.97908,-1.70396 0.949,-2.21412 -0.0144,-0.25277 0.0144,-0.53127 0.0897,-0.58736 0.0969,-0.0723 0.10986,-0.46534 0,-1.31053 -0.19189,-1.48115 -0.82669,-2.82868 -1.3555,-2.93729 -0.17626,-0.0361 -0.31639,-0.12434 -0.31639,-0.22586 0,-0.10122 -0.26533,-0.42757 -0.58736,-0.67789 -0.52215,-0.40459 -0.84345,-0.49829 -2.03353,-0.723 -0.17742,-0.0332 -0.44204,-0.13882 -0.58751,-0.22586 -0.0969,-0.0594 -0.22341,-0.0911 -0.36149,-0.0897 z m -246.09255,8.99229 c 3.70394,0.0709 6.23216,0.70161 8.72117,1.98826 3.83713,1.9874 6.25022,5.33983 6.46193,8.94733 0.36411,6.21292 -4.95013,11.55738 -12.06522,11.97469 l -20.8315,1.22015 -1.35577,-23.13616 14.91211,-0.85863 c 1.52786,-0.0897 2.9221,-0.15893 4.15728,-0.13593 z m -109.12859,21.73613 c -0.34674,0 -0.65822,0.0376 -0.76812,0.13592 -0.0897,0.0795 -0.415,0.1501 -0.723,0.13593 -0.97027,-0.039 -1.22376,-0.0289 -1.62676,0.0897 -0.50683,0.14951 -1.42475,0.6763 -1.49127,0.85849 -0.0275,0.0781 -0.14171,0.0709 -0.226,-0.0447 -0.12726,-0.1741 -0.15241,-0.16123 -0.27099,0.0447 -0.10555,0.18408 -0.16672,0.19956 -0.18076,0.0449 -0.0144,-0.1446 -0.12001,-0.18148 -0.3615,-0.0897 -0.1939,0.0738 -0.40127,0.18147 -0.45202,0.27113 -0.0506,0.0897 -0.17699,0.14171 -0.27098,0.0897 -0.094,-0.0506 -0.23758,0.0404 -0.3615,0.18075 -0.1258,0.14027 -0.30829,0.22588 -0.3615,0.22588 -0.0549,0 -0.23339,0.18016 -0.40677,0.36149 -0.17338,0.1822 -0.52013,0.38247 -0.76827,0.45202 -0.26765,0.0752 -0.45173,0.24785 -0.45173,0.40663 9.7e-4,0.14749 0,0.1887 -0.0447,0.0897 -0.0983,-0.20461 -0.73747,-0.0897 -0.72301,0.13594 0,0.0824 -0.0404,0.14315 -0.13592,0.0911 -0.0955,-0.0522 -0.41891,0.0144 -0.72301,0.18075 -0.30511,0.16673 -0.62511,0.34098 -0.72301,0.36151 -0.0983,0.0203 -0.32476,0.0897 -0.45202,0.18075 -0.1258,0.0911 -0.34212,0.1514 -0.49698,0.13593 -0.15487,-0.0159 -0.27113,0.0476 -0.27113,0.13592 0,0.0883 -0.28747,0.23397 -0.67789,0.31638 -0.38955,0.0824 -0.67601,0.2104 -0.63249,0.27114 0.0419,0.0622 -0.27706,0.13592 -0.67789,0.13592 -0.41747,0 -0.77043,-0.1041 -0.85863,-0.22586 -0.0838,-0.11714 -0.13594,-0.13304 -0.13594,-0.0448 0,0.0883 -0.0955,0.0738 -0.18074,-0.0448 -0.15776,-0.21963 -1.64122,-0.3038 -1.62676,-0.0897 0,0.0622 -0.20881,0.0911 -0.49699,0.0448 -0.28892,-0.0419 -0.91995,-0.0448 -1.40089,0 -0.48095,0.0447 -1.01698,0.0246 -1.17489,-0.0448 -0.18711,-0.081 -0.27112,-0.0694 -0.27112,0.0448 0,0.0998 -0.0447,0.14025 -0.13593,0.0911 -0.0911,-0.0476 -0.18075,-0.0144 -0.18075,0.0897 0,0.0983 -0.055,0.13305 -0.13592,0.0911 -0.081,-0.0447 -0.18249,0.0419 -0.22602,0.18075 -0.0434,0.13738 -0.15979,0.24033 -0.27099,0.22588 -0.11278,-0.0145 -0.34529,0.0144 -0.54223,0.0897 -0.23123,0.0926 -0.45681,0.0824 -0.63279,-0.0447 -0.23237,-0.16759 -0.26982,-0.15833 -0.18075,0.0447 0.0666,0.15155 -0.0158,0.24944 -0.18074,0.27114 -0.14316,0.0188 -0.51565,0.16701 -0.85851,0.31638 -0.43076,0.18726 -0.67601,0.41457 -0.81338,0.76811 -0.10986,0.2814 -0.29961,0.54226 -0.40661,0.54226 -0.11857,0 -0.15111,0.14475 -0.0911,0.36151 0.0781,0.27748 0.0492,0.31075 -0.0897,0.13593 -0.13448,-0.16601 -0.17758,0 -0.13592,0.63247 0.0448,0.66546 0.14705,0.92994 0.40661,1.12977 0.18639,0.14316 0.31175,0.37133 0.27127,0.497 -0.0404,0.12724 0.026,0.3012 0.13593,0.40676 0.15444,0.14749 0.16889,0.1728 0,0.0897 -0.16774,-0.0824 -0.18248,-0.0404 -0.0449,0.18076 0.17686,0.28587 0.42702,0.86933 0.40677,0.94887 0,0.0246 0.0752,0.24322 0.22601,0.49713 0.18466,0.31191 0.21329,0.48267 0.0897,0.49715 -0.13158,0 -0.10554,0.0637 0.0448,0.22586 0.11567,0.12436 0.1981,0.45823 0.18075,0.76812 -0.0188,0.31046 -0.0144,0.58751 0.0447,0.58751 0.055,0 0.12002,0.0723 0.13592,0.18075 0.0158,0.10843 0.094,0.46678 0.18076,0.81338 0.0868,0.34646 0.19983,1.25586 0.22601,2.03338 0.0318,0.95871 0.12291,1.50963 0.27098,1.67202 0.12581,0.14171 0.15227,0.19203 0.0447,0.13593 -0.12726,-0.0666 -0.19058,0.0579 -0.13593,0.40676 0.0448,0.28183 0.11713,0.54399 0.13593,0.58752 0.0246,0.0419 0,0.16368 0,0.22586 -0.0795,0.91402 -0.0491,1.23446 0.0897,1.22015 0.10267,0 0.14822,0.17582 0.0897,0.45173 -0.0549,0.24495 -0.10987,0.712 -0.0897,1.03939 0.0246,0.39042 -0.0144,0.54919 -0.13592,0.49714 0.0188,0.0217 0.0318,0.0897 0.0912,0.13592 0.18595,0.14475 0.22081,0.35644 0.18076,0.85849 -0.0303,0.38652 0,0.67789 0.0897,0.67789 0.0824,0 0.0955,0.0955 0,0.22586 -0.12725,0.16718 -0.1258,0.29384 0,0.36152 0.11423,0.0622 0.18075,0.54645 0.18075,1.35578 0,0.69552 0.0622,1.26497 0.13592,1.26526 0.0738,0 0.0608,0.18465 0,0.45173 -0.0594,0.26794 -0.0492,0.49713 0,0.49713 0.0477,0 0.0144,0.0853 -0.0897,0.22587 -0.1537,0.20879 -0.17713,0.26058 0,0.18075 0.17035,-0.0766 0.24655,0.0752 0.27114,0.76827 0.0173,0.48513 0.10122,0.90549 0.18074,0.94901 0.0795,0.0419 0.10554,0.2091 0.0447,0.3615 -0.13014,0.32536 0.0144,3.10401 0.18075,3.34376 0.0637,0.0911 0.0752,0.21907 0,0.27126 -0.0738,0.0521 -0.0969,0.32579 -0.0448,0.63249 0.0637,0.37813 0.0477,0.57305 -0.0897,0.58751 -0.12436,0.0145 -0.14749,0.0694 -0.0448,0.13593 0.24496,0.15877 0.59505,1.07525 0.45202,1.17504 -0.13881,0.0969 0.0246,2.30117 0.18077,2.43998 0.0637,0.0506 0.11279,0.33375 0.0897,0.67789 -0.0231,0.36295 0,0.63263 0.0911,0.63263 0.0883,0 0.13736,0.12146 0.0897,0.27112 -0.0651,0.20389 -0.0275,0.24828 0.13592,0.13593 0.18682,-0.12724 0.17309,-0.15067 0,0.0897 -0.11135,0.15587 -0.12147,0.31639 -0.0447,0.31639 0.0766,0 0.20895,0.40184 0.27098,0.90375 0.0608,0.50192 0.11134,1.0339 0.13592,1.22014 0.0246,0.18596 0.11713,0.42469 0.22587,0.54225 0.10986,0.11713 0.27806,0.70826 0.36151,1.31038 0.0838,0.60212 0.22383,1.18283 0.31637,1.26526 0.0926,0.0824 0.1663,0.30062 0.18076,0.49714 0.0145,0.19579 0.13304,0.40257 0.22587,0.45173 0.0926,0.0506 0.12291,0.16382 0.0911,0.22602 -0.0983,0.18957 0.89392,1.6337 1.0845,1.58149 0.0926,-0.026 0.1287,0.0565 0.0897,0.18075 -0.039,0.12435 0.0375,0.26289 0.13592,0.31639 0.094,0.0535 0.13593,0.18436 0.0897,0.27112 -0.0462,0.0853 -0.026,0.10987 0.0448,0.0897 0.25176,-0.0723 0.70826,0.18799 0.72301,0.40663 0,0.12145 0.10986,0.24046 0.22587,0.226 0.11568,0 0.36903,0.15487 0.58737,0.36151 0.21863,0.20663 0.41428,0.35831 0.45202,0.31624 0.0361,-0.0419 0.20245,0.0521 0.3615,0.22602 0.17107,0.18811 0.53083,0.31623 0.85849,0.31623 0.67601,0.0144 1.25081,0.15471 1.26526,0.31638 0,0.0666 0.18929,0.10411 0.40677,0.0897 0.21676,-0.0144 0.36107,-0.0709 0.31624,-0.13592 -0.0462,-0.0651 0.20924,-0.0448 0.58752,0.0447 l 0.0447,0 c 0.44276,0.10554 0.77376,0.10554 0.94886,0 0.14995,-0.0897 0.34199,-0.14995 0.45203,-0.13592 0.10987,0.0144 0.35731,-0.0145 0.54225,-0.0897 0.23469,-0.0983 0.33172,-0.24741 0.27098,-0.49714 -0.0477,-0.19159 -0.0578,-0.24264 0,-0.13593 0.12725,0.23716 0.55672,0.22892 0.54226,0 0,-0.0868 0.0694,-0.13592 0.13592,-0.13592 0.0666,0 0.25118,-0.0594 0.45188,-0.13592 0.27474,-0.10555 0.34646,-0.17859 0.18075,-0.27127 -0.16094,-0.0897 -0.15471,-0.12002 0.0897,-0.13593 0.18495,-0.0144 0.58853,-0.25999 0.90376,-0.54225 0.31537,-0.28227 0.71837,-0.52636 0.85864,-0.54225 0.18075,-0.0203 0.19709,-0.039 0.0447,-0.0897 -0.15227,-0.0506 -0.11568,-0.16296 0.13592,-0.36149 0.19391,-0.15385 0.42354,-0.29138 0.54226,-0.31639 0.11857,-0.0246 0.35847,-0.21286 0.54226,-0.40662 0.18334,-0.19318 0.3897,-0.32752 0.45173,-0.27113 0.0637,0.055 0.13592,0.0492 0.13592,-0.0447 0,-0.094 0.29441,-0.37336 0.6779,-0.58738 0.3826,-0.214 0.67773,-0.42758 0.67773,-0.49713 0,-0.10554 0.41182,-0.34617 0.81339,-0.45173 0.0579,-0.0159 0.16383,-0.0666 0.22586,-0.13592 0.0622,-0.0709 0.19348,-0.12147 0.31639,-0.13592 0.12292,0 0.3333,-0.13739 0.45188,-0.27099 0.11857,-0.13304 0.36367,-0.20432 0.54225,-0.18075 0.17858,0.0231 0.27952,-0.0158 0.22602,-0.0911 -0.12002,-0.16919 0.427,-0.54978 0.58736,-0.40663 0.0637,0.0565 0.0723,-0.0565 0,-0.22586 -0.0694,-0.17004 -0.0709,-0.23758 0,-0.18074 0.0709,0.0564 0.1757,0.0447 0.27113,-0.0448 0.31696,-0.29947 2.13936,-1.58151 2.25938,-1.58151 0.16731,-0.0144 1.07945,-0.96273 0.99414,-1.03938 -0.039,-0.0347 0.1514,-0.18769 0.45187,-0.31639 0.30063,-0.12869 0.74456,-0.40286 0.94888,-0.63248 0.20504,-0.23107 0.43857,-0.37279 0.54225,-0.31639 0.11712,0.0637 0.12292,0.0203 0.0447,-0.0897 -0.0752,-0.10698 0.055,-0.21372 0.27113,-0.31624 0.19723,-0.094 0.29846,-0.17988 0.22586,-0.18074 -0.17063,0 0.72084,-1.02494 0.90377,-1.0394 0.0766,0 0.38376,-0.27662 0.723,-0.63263 0.3401,-0.35616 0.76247,-0.64709 0.90375,-0.63263 0.13738,0.0144 0.19492,-0.0521 0.13592,-0.13592 -0.11856,-0.16832 0.82177,-1.14597 1.12963,-1.17474 0.10842,-0.0145 0.10554,-0.0911 0.0448,-0.22601 -0.068,-0.15125 -4.3e-4,-0.2477 0.13593,-0.22601 0.11857,0.0187 0.2866,-0.12292 0.3615,-0.31624 0.0752,-0.19334 0.34082,-0.46663 0.58751,-0.63264 0.34387,-0.23107 0.35284,-0.35644 0.18076,-0.45188 -0.18336,-0.10266 -0.1501,-0.12146 0.0447,-0.13592 0.249,-0.0174 1.0537,-0.71288 1.03925,-0.90376 0,-0.0608 -0.0838,-0.068 -0.18075,0 -0.10986,0.0766 -0.10986,0.0289 -0.0447,-0.0911 0.0579,-0.10554 0.1508,-0.13013 0.226,-0.0897 0.0752,0.0404 0.18248,-0.0462 0.22602,-0.18075 0.0419,-0.13448 0.11133,-0.24481 0.18074,-0.22602 0.16369,0.0448 0.71896,-0.60818 0.76812,-0.90375 0.0217,-0.1258 0.10122,-0.23643 0.18076,-0.27112 0.0795,-0.0347 0.13593,-0.14678 0.13593,-0.27114 -0.0144,-0.19694 0.17944,-0.33215 0.49698,-0.31624 0.0506,0 0.18481,-0.27793 0.31624,-0.63277 0.13159,-0.35384 0.32724,-0.63249 0.40677,-0.63249 0.1498,-0.0144 0.64376,-1.00208 0.58751,-1.17502 -0.0188,-0.0535 0.10843,-0.2412 0.27098,-0.40662 0.16369,-0.16557 0.27128,-0.42368 0.27128,-0.54226 -0.0145,-0.11856 0.0447,-0.18074 0.13592,-0.18074 0.10267,0 0.12436,-0.28212 0.0448,-0.72301 -0.0766,-0.42729 -0.0506,-0.723 0.0447,-0.723 0.0883,0 0.13592,-0.0883 0.13592,-0.18075 0,-0.0926 -0.0521,-0.14967 -0.13592,-0.0897 -0.0969,0.0694 -0.11424,-0.0318 -0.0447,-0.27114 0.0766,-0.2675 -0.0419,-0.5272 -0.3164,-0.99412 -0.21198,-0.36005 -0.39837,-0.60298 -0.45188,-0.54225 -0.055,0.0608 -0.13592,0.0173 -0.13592,-0.0897 0,-0.10843 -0.081,-0.16124 -0.18074,-0.0897 -0.12291,0.0854 -0.15111,0.0536 -0.0912,-0.13592 0.0535,-0.17295 0.0447,-0.24481 -0.0448,-0.18074 -0.0824,0.0594 -0.18074,0.0419 -0.18074,-0.0447 0,-0.0868 -0.13594,-0.22485 -0.3164,-0.27112 -0.19463,-0.0492 -0.2866,-0.15545 -0.22586,-0.27114 0.0579,-0.10986 -0.0361,-0.0883 -0.18076,0.0449 -0.1673,0.15125 -0.27112,0.16224 -0.27112,0.0447 0,-0.10554 -0.22428,-0.13159 -0.54226,-0.0897 -0.29788,0.039 -0.48947,0.10267 -0.45188,0.13594 0.13883,0.12436 -0.29845,0.52548 -0.58736,0.54224 -0.16528,0.0145 -0.27127,0.0883 -0.27127,0.18076 0,0.0983 -0.0491,0.13737 -0.13593,0.0911 -0.0868,-0.0463 -0.23382,0.0462 -0.31625,0.22588 -0.0897,0.19463 -0.26186,0.31739 -0.40675,0.27111 -0.18076,-0.0579 -0.18293,-0.0231 -0.0897,0.18076 0.0766,0.16816 0.0565,0.2357 -0.0447,0.18074 -0.21243,-0.11423 -1.32498,0.30873 -1.31053,0.497 0,0.0781 -0.0897,0.094 -0.18074,0.0447 -0.0911,-0.0492 -0.13593,-0.039 -0.13593,0.0449 0,0.0838 -0.22196,0.24697 -0.49714,0.36149 -0.5437,0.22557 -1.24834,0.86933 -1.12961,1.03924 0.0404,0.0579 -0.0144,0.12147 -0.13593,0.13593 -0.12726,0.0145 -0.22587,-0.0622 -0.22587,-0.13593 0,-0.0738 -0.33966,0.2133 -0.72301,0.63263 -0.38377,0.41934 -0.7791,0.76812 -0.85864,0.76812 -0.0795,0 -0.0594,0.0969 0,0.18076 0.0594,0.0853 -0.0752,0.12147 -0.27113,0.13592 -0.19434,0.0145 -0.28514,0.0824 -0.226,0.13592 0.0594,0.0522 -0.18582,0.33012 -0.54225,0.58738 -0.35573,0.25725 -0.74716,0.57059 -0.8585,0.723 -0.11135,0.15284 -0.28197,0.22413 -0.3615,0.18075 -0.0795,-0.0433 -0.0998,0.0594 -0.0448,0.18076 0.055,0.12145 0,0.2542 -0.13592,0.31638 -0.14172,0.0622 -0.19623,0.18437 -0.13593,0.27098 0.0608,0.0868 -0.0188,0.15299 -0.13592,0.13594 -0.11713,-0.0174 -0.16586,0.0666 -0.13592,0.18074 0.0303,0.12002 -7.3e-4,0.13737 -0.0897,0.0897 -0.0897,-0.0476 -0.41689,0.21719 -0.72301,0.54226 -0.30655,0.32506 -0.6468,0.53762 -0.723,0.49699 -0.0766,-0.0404 -0.1041,0.039 -0.0912,0.18075 0.0145,0.1417 -0.0897,0.23035 -0.18074,0.18075 -0.0897,-0.0492 -0.14995,0.0565 -0.13593,0.22601 0.016,0.27561 -0.4529,0.57551 -0.81338,0.54226 -0.0694,0 -0.13882,0.0926 -0.18074,0.22601 -0.042,0.13303 -0.36946,0.4179 -0.6779,0.63249 -0.3077,0.21487 -0.66531,0.55902 -0.81324,0.76825 -0.14807,0.20939 -0.37278,0.39232 -0.49714,0.40677 -0.1258,0 -0.22586,0.0926 -0.22586,0.18075 0,0.0883 -0.0246,0.14995 -0.0911,0.13592 -0.26737,-0.0462 -1.10967,0.51161 -1.67188,1.12977 -0.32753,0.35977 -0.59504,0.59098 -0.63263,0.49699 -0.0433,-0.10698 -0.1686,-0.0766 -0.31624,0.0897 -0.13014,0.14546 -0.37798,0.25911 -0.54226,0.22586 -0.19072,-0.0376 -0.28559,-0.0144 -0.27127,0.13592 0.0145,0.1287 -0.0447,0.22992 -0.13592,0.18075 -0.0897,-0.0492 -0.18075,-0.0476 -0.18075,0.0447 0,0.094 -0.094,0.16673 -0.22601,0.18076 -0.13015,0.0145 -0.22587,0.0926 -0.22587,0.18075 0,0.0883 -0.11278,0.16673 -0.27112,0.18075 -0.15762,0.0144 -0.3738,0.0955 -0.45188,0.18076 -0.0781,0.0853 -0.37308,0.17829 -0.67789,0.22601 -0.30424,0.0476 -0.67023,0.2464 -0.81324,0.40676 -0.29338,0.32852 -0.74657,0.2409 -0.76825,-0.13593 -0.0145,-0.13736 -0.12437,-0.35399 -0.27114,-0.49713 -0.1835,-0.17975 -0.30221,-0.62064 -0.3615,-1.40076 -0.0477,-0.6212 -0.14924,-1.12976 -0.22586,-1.12976 -0.0766,0 -0.0955,-0.0853 -0.0448,-0.18075 0.0506,-0.094 0,-0.21357 -0.0897,-0.31625 -0.0955,-0.10266 -0.20288,-0.41847 -0.22588,-0.67773 -0.094,-1.05126 -0.17149,-1.49128 -0.27127,-1.49128 -0.0579,0 -0.081,-0.13881 -0.0447,-0.31624 0.0347,-0.17815 0,-0.31639 -0.0897,-0.31639 -0.0926,0 -0.1605,-0.13159 -0.13593,-0.31639 0.0752,-0.56582 0.0217,-1.62127 -0.18074,-3.07276 -0.15689,-1.06918 -0.15517,-1.38629 0,-1.40075 0.15675,-0.0144 0.16889,-0.0449 0,-0.22601 -0.16529,-0.1754 -0.21343,-0.32232 -0.0911,-0.67775 0.17294,-0.49714 1.01307,-1.1795 1.17503,-0.94901 0.13158,0.18899 0.73689,0 0.723,-0.22588 0,-0.11423 0.0144,-0.14315 0.0897,-0.0447 0.0694,0.0838 0.36901,0.17887 0.63277,0.18075 0.26346,0 0.91822,0.0188 1.49112,0.0447 0.57291,0.0231 1.17894,0.0447 1.31038,0.0447 0.13158,0 0.25999,0.0594 0.31639,0.13592 0.11856,0.15921 1.34637,0.12002 1.58163,-0.0447 0.0853,-0.0608 0.23571,-0.0203 0.36152,0.0897 0.12435,0.11133 0.34674,0.16744 0.49698,0.13592 0.14966,-0.0303 0.27113,0.0144 0.27113,0.0897 0,0.0766 0.16571,0.10267 0.31638,0.0448 0.67429,-0.26072 0.96478,-0.50466 0.94889,-0.81353 -0.0145,-0.18783 0.0203,-0.26867 0.0897,-0.18075 0.14793,0.18479 0.36354,0.19419 0.63263,0 0.10555,-0.0766 0.27041,-0.094 0.36151,-0.0448 0.0911,0.0492 0.18075,0 0.18075,-0.0897 0,-0.0926 0.0853,-0.16629 0.22586,-0.18076 0.16601,-0.0144 0.20215,-0.12581 0.13594,-0.27112 -0.0536,-0.12725 -0.0188,-0.22587 0.0447,-0.22587 0.36382,0.0318 0.68006,-0.0476 0.58751,-0.18074 -0.0592,-0.0838 -0.0303,-0.18076 0.0897,-0.18076 0.20692,-0.0145 0.87252,-0.89132 0.85863,-1.12977 0,-0.0622 0.16586,-0.30048 0.40662,-0.54225 0.24163,-0.24263 0.46953,-0.67254 0.49715,-0.94901 0.026,-0.27503 0.13158,-0.65389 0.22586,-0.8585 0.13448,-0.29108 0.15616,-0.36801 0,-0.45188 -0.1287,-0.0694 -0.14635,-0.15516 -0.0448,-0.22587 0.0853,-0.0608 0.0824,-0.25551 0.0448,-0.40676 -0.0376,-0.15125 -0.0637,-0.52534 -0.0897,-0.8585 -0.0289,-0.36135 -0.13448,-0.56075 -0.22602,-0.49713 -0.0838,0.0594 -0.13592,0.0159 -0.13592,-0.0897 0,-0.10554 -0.22817,-0.40386 -0.49699,-0.63264 -0.26982,-0.22875 -0.46026,-0.47573 -0.40676,-0.54223 0.0535,-0.0694 -0.0766,-0.0608 -0.27114,0 -0.23279,0.0723 -0.38578,0.0318 -0.49712,-0.13594 -0.0926,-0.13881 -0.18033,-0.17279 -0.18076,-0.0897 0,0.0824 -0.0637,0.0404 -0.18075,-0.0911 -0.11713,-0.13015 -0.592,-0.36541 -1.03924,-0.49701 -0.4474,-0.13157 -1.03217,-0.41947 -1.26526,-0.63261 -0.23295,-0.2133 -0.54674,-0.38653 -0.723,-0.40663 -0.17642,-0.0203 -0.35312,-0.1041 -0.40677,-0.18074 -0.0535,-0.0738 -0.42512,-0.12725 -0.81324,-0.0911 -1.03664,0.0969 -1.31992,0.094 -1.22014,-0.0897 0.0492,-0.0911 -0.0217,-0.17945 -0.18074,-0.18076 -1.08582,-0.0145 -1.1493,-0.0145 -1.22016,0.27099 -0.0404,0.1608 -0.23454,0.30193 -0.40661,0.31639 -0.17207,0.0144 -0.36612,0.14459 -0.40661,0.27112 -0.0404,0.12724 -0.19161,0.20389 -0.36151,0.18076 -0.17121,-0.0231 -0.31639,0.0217 -0.31639,0.0897 0,0.068 -0.22327,0.11714 -0.54226,0.13594 -0.31899,0.0188 -0.67861,0.14025 -0.76812,0.27098 -0.19622,0.28298 -1.8383,0.52605 -1.85277,0.27126 0,-0.0926 -0.0521,-0.14965 -0.13592,-0.0911 -0.0853,0.0594 -0.18118,0.0536 -0.18075,-0.0448 0,-0.0983 -0.0535,-0.14822 -0.13592,-0.0897 -0.0824,0.0579 -0.20172,-0.0521 -0.27114,-0.27111 -0.0694,-0.21936 -0.21039,-0.40663 -0.27112,-0.40663 -0.17395,0.0144 -0.14026,-1.17994 0.0447,-1.58165 0.0926,-0.19853 0.18119,-0.57695 0.18075,-0.81338 0,-0.28789 0.10699,-0.44782 0.31639,-0.49698 0.17165,-0.0419 0.4377,-0.20808 0.58738,-0.40677 0.0651,-0.0868 0.14937,-0.10843 0.18075,-0.13592 -0.0969,0.21473 -0.081,0.22788 0.18074,0 0.16283,-0.14172 0.32146,-0.31581 0.36151,-0.3615 0.0419,-0.0476 0.28731,-0.21532 0.54225,-0.3615 0.25565,-0.14707 0.49656,-0.2908 0.54226,-0.36151 0.0462,-0.0709 0.24625,-0.17395 0.45202,-0.22602 0.20562,-0.0521 0.43337,-0.22991 0.49698,-0.36149 0.0723,-0.14937 0.28415,-0.21256 0.54226,-0.18075 0.24553,0.0289 0.38001,-7.2e-4 0.31624,-0.0897 -0.10842,-0.15502 0.38016,-0.1608 0.6779,0 0.0969,0.0521 0.11712,0.0232 0.0447,-0.13592 -0.081,-0.18076 -0.039,-0.24987 0.0911,-0.18076 0.10699,0.0594 0.37149,-0.0738 0.58737,-0.31624 0.51769,-0.58216 1.57009,-1.20481 1.94317,-1.12977 0.16628,0.0332 0.27098,0.0159 0.27098,-0.0447 0,-0.0608 0.17582,-0.14748 0.40675,-0.18075 0.23093,-0.0332 0.51985,-0.12001 0.63263,-0.22588 0.11279,-0.10554 0.22586,-0.14676 0.22586,-0.0911 0,0.0564 0.17845,-0.0565 0.40677,-0.22587 0.22847,-0.16919 0.37553,-0.20028 0.31625,-0.0897 -0.0824,0.15066 0,0.15126 0.3615,0 0.2607,-0.10842 0.45202,-0.25854 0.45202,-0.31624 0,-0.0594 0.42483,-0.11568 0.90376,-0.13593 0.47819,-0.0203 0.8115,-0.0752 0.7681,-0.13592 -0.18248,-0.25986 1.69025,-0.46156 2.12391,-0.22587 0.15719,0.0868 0.22081,0.0766 0.13593,-0.0448 -0.0809,-0.11568 0.0144,-0.16514 0.27113,-0.18076 0.21791,-0.0144 0.50249,-0.17063 0.63262,-0.31638 0.13014,-0.14895 0.22601,-0.20779 0.22601,-0.13592 0,0.0723 0.0723,0.026 0.13593,-0.0897 0.0637,-0.11568 0.35992,-0.19565 0.67774,-0.22602 0.31827,-0.0303 0.54341,-0.11567 0.49714,-0.18075 -0.0447,-0.0651 0,-0.16527 0.0897,-0.226 0.0853,-0.0594 0.14994,-0.24727 0.13592,-0.40662 -0.0144,-0.15935 0.10266,-0.38146 0.22602,-0.49715 0.27415,-0.25551 0.68497,-1.20293 0.45187,-1.03924 -0.10266,0.0723 -0.11134,0.0347 -0.0447,-0.0897 0.0594,-0.11712 0.21328,-0.18132 0.3615,-0.13592 0.20634,0.0651 0.2422,0.0462 0.0897,-0.0897 -0.15097,-0.13592 -0.13015,-0.23121 0.0911,-0.49714 0.21213,-0.25796 0.19506,-0.41587 0.0447,-0.49713 -0.10842,-0.0594 -0.14315,-0.1229 -0.0897,-0.18075 0.0521,-0.0579 0,-0.31769 -0.13592,-0.54226 -0.17251,-0.28747 -0.20909,-0.41312 -0.0911,-0.49699 0.0926,-0.0651 0.11134,-0.22254 0.0447,-0.31625 -0.0651,-0.0955 -0.0231,-0.16672 0.0897,-0.18075 0.15587,-0.0203 0.15688,-0.039 0,-0.0912 -0.11135,-0.0375 -0.21155,-0.19188 -0.22587,-0.31624 -0.0144,-0.12291 -0.0723,-0.16441 -0.18075,-0.13592 -0.10842,0.0275 -0.1968,-0.0694 -0.18075,-0.18075 0.0246,-0.17814 -0.18264,-0.24756 -0.49713,-0.18076 -0.0622,0.0144 -0.0868,-0.0926 -0.0448,-0.22601 0.0492,-0.15212 -0.0203,-0.24032 -0.18075,-0.22601 -0.14171,0.0144 -0.22601,-0.0433 -0.22601,-0.13592 0,-0.094 -0.10554,-0.14315 -0.18075,-0.0897 -0.0752,0.0521 -0.24149,-0.0144 -0.3615,-0.13592 -0.12003,-0.12291 -0.29253,-0.18754 -0.40677,-0.13592 -0.11424,0.0522 -0.22587,0.026 -0.22587,-0.0447 -0.0144,-0.17527 -0.83203,-0.48356 -1.17488,-0.45173 -0.15327,0.0144 -0.27113,-0.0289 -0.27113,-0.0911 0,-0.0622 -0.28558,-0.10986 -0.63262,-0.0897 -0.34719,0.0203 -0.73992,-0.0535 -0.8585,-0.13592 -0.13303,-0.0926 -0.51189,-0.0969 -0.85864,-0.0897 z m -247.76472,52.1467 c -0.63523,0.0476 -1.30242,0.19464 -2.25924,0.49714 -2.77881,0.87686 -3.18758,1.6457 -3.02766,5.6484 0.0738,1.83137 1.62213,3.93518 3.25352,4.47366 0.62135,0.20446 1.71396,0.67963 2.44015,1.03925 1.16591,0.5771 2.03323,0.60458 7.45604,0.40676 3.39669,-0.12436 6.37315,-0.0462 6.64254,0.13592 0.94078,0.63423 1.16592,3.24225 1.31053,14.4601 0.0795,6.22579 0.33778,12.30873 0.54225,13.51108 0.20359,1.20336 0.46011,3.09937 0.58737,4.20254 0.39519,3.42979 1.79695,9.61206 2.44013,10.70958 0.3375,0.57522 1.27091,1.31153 2.07865,1.67187 2.57967,1.15088 5.04367,0.66285 5.91966,-1.22014 0.3563,-0.76638 0.28154,-1.98364 -0.36149,-6.50704 -0.99024,-6.98683 -1.38283,-18.47365 -0.99428,-28.87492 0.24452,-6.53005 0.41052,-7.9548 0.90375,-8.35983 0.46866,-0.38159 2.3288,-0.44348 8.81169,-0.36149 4.52009,0.0579 9.3648,0.17004 10.79997,0.27127 2.17725,0.15342 2.86743,0.0868 4.06675,-0.54226 2.72515,-1.43141 3.64263,-4.12488 2.21427,-6.59756 -0.91417,-1.58222 -3.05555,-3.45191 -4.60915,-4.02165 -1.18775,-0.43639 -3.54012,-0.42122 -5.46765,0.0449 -1.81764,0.4403 -8.78913,0.81887 -21.64504,1.17502 -7.53269,0.20822 -10.65042,0.13882 -12.87843,-0.22602 -1.61867,-0.26476 -3.14653,-0.57695 -3.38917,-0.723 -0.24264,-0.14604 -1.40869,-0.4247 -2.62089,-0.63263 -0.9425,-0.16181 -1.57816,-0.22789 -2.21427,-0.18074 z m 70.89972,1.76239 c 0,-9.6e-4 -0.0911,0.31581 -0.0897,0.31626 2.8e-4,1.4e-4 0.0897,0.0447 0.0897,0.0447 -4.4e-4,0 0,-0.36049 0,-0.3615 z m 0,0.36151 c 0.0492,0.83522 2.64446,44.87965 2.66601,45.27802 0.80239,-0.52751 37.44397,-24.65142 37.82224,-24.89839 -0.8903,-0.44726 -40.19254,-20.22953 -40.48825,-20.37963 z m 40.48825,20.37963 c 0.0145,0 0.40547,0.18017 0.40677,0.18074 8.7e-4,4.3e-4 -0.27026,-0.2717 -0.27128,-0.27112 -2.8e-4,2.9e-4 -0.13447,0.0897 -0.13592,0.0897 z m -37.82224,24.89839 c -0.0144,0 -0.36034,0.2253 -0.36152,0.22602 -8.6e-4,5.7e-4 0.36167,-0.0897 0.36152,-0.0897 0,-4.3e-4 1.5e-4,-0.13448 0,-0.13592 z m 112.87923,-44.82629 c -1.33032,0 -2.65038,0.36136 -3.52479,0.94902 -1.59003,1.06961 -1.99693,2.85211 -1.67187,6.95891 0.15877,2.00664 0.45694,6.51919 0.67788,10.0317 0.58159,9.26386 1.52396,17.97013 2.21413,20.24413 0.3524,1.16086 0.96392,2.20053 1.44602,2.53051 2.44203,1.6716 3.68255,2.30365 5.10614,2.62089 2.17002,0.48341 4.35712,0.16572 6.64269,-0.94886 1.0618,-0.51839 2.16178,-0.94902 2.44014,-0.94902 0.59271,0 6.05487,-1.77194 6.95891,-2.25938 0.34054,-0.18365 1.30821,-0.49093 2.16902,-0.63264 0.86081,-0.14171 1.98623,-0.45477 2.4854,-0.723 0.49901,-0.26809 2.01877,-0.85749 3.38901,-1.31053 2.17321,-0.71751 2.54873,-0.95999 2.98239,-2.03338 0.64478,-1.5961 0.61152,-3.79664 -0.0897,-5.42253 -0.56915,-1.31803 -2.59444,-3.10357 -3.52465,-3.11788 -0.28241,0 -0.87194,-0.25262 -1.26526,-0.54225 -0.39331,-0.2908 -1.11285,-0.51161 -1.62675,-0.49714 -1.42433,0.0231 -4.87971,1.0511 -5.28691,1.58164 -1.20336,1.56415 -7.39114,4.41395 -9.62507,4.42827 -1.48953,0.0144 -1.85422,-0.45304 -2.25939,-2.75639 -0.51564,-2.93193 -0.6416,-15.04978 -0.18075,-17.89437 0.3135,-1.93533 0.31263,-2.5966 -0.22587,-4.15727 -0.85792,-2.48221 -3.95802,-5.6286 -5.87456,-5.96478 -0.42628,-0.0752 -0.91228,-0.13594 -1.35548,-0.13594 z m -46.8598,6.86855 c -0.45579,-0.0144 -0.87931,0.0173 -1.26526,0.0447 -0.51448,0.0361 -0.98084,0.11424 -1.26526,0.226 -0.59026,0.23181 -1.90584,1.13137 -2.93728,2.03338 -2.09382,1.83268 -4.12039,5.51842 -6.3714,11.56809 -0.71303,1.91653 -1.54536,4.08323 -1.85263,4.7899 -0.30786,0.70667 -1.26381,3.35358 -2.12391,5.87442 -0.86007,2.52096 -2.36421,6.28926 -3.34389,8.35966 -1.01842,2.1531 -1.83787,4.47467 -1.94299,5.4678 -0.25508,2.39706 0.39606,4.61638 1.76224,5.73878 0.91084,0.74873 1.54911,0.87742 3.16315,0.85863 1.09911,-0.0145 2.44346,-0.25174 2.9824,-0.54225 2.34413,-1.26366 4.3655,-4.46802 4.33802,-6.82344 -0.0144,-0.61295 0.46475,-2.17146 1.03925,-3.47938 0.7807,-1.77613 1.26136,-2.39488 1.8075,-2.39488 0.40315,0 0.78693,-0.1673 0.90377,-0.3615 0.23469,-0.38956 0.75771,-0.55324 7.59155,-2.4854 2.56724,-0.72589 5.07332,-1.35564 5.55816,-1.35564 0.64001,-0.0144 1.173,0.41833 1.89789,1.5364 0.5492,0.8472 1.18558,2.2442 1.44601,3.07276 1.26035,4.01181 3.26075,5.21908 7.09456,4.38315 2.67324,-0.58232 3.19568,-0.88482 3.886,-2.25925 0.46764,-0.93109 0.50263,-1.52468 0.18074,-3.20841 -0.48325,-2.53484 -3.32436,-8.43558 -5.69351,-11.8392 -0.97591,-1.40119 -3.13148,-5.10991 -4.79005,-8.26929 -3.2943,-6.27785 -5.9619,-9.75651 -7.95304,-10.34808 -1.15825,-0.34443 -2.74467,-0.55815 -4.11202,-0.58751 z m 0.0897,13.1046 c 0.0868,9.7e-4 0.1446,0.0404 0.22587,0.0897 0.58158,0.35036 3.38915,4.5613 3.38915,5.10629 0,0.24944 -0.12147,0.54154 -0.27113,0.63263 -0.14951,0.0911 -1.25528,0.29701 -2.48526,0.45188 -2.02615,0.25493 -2.29957,0.202 -2.80178,-0.497 -0.49396,-0.68931 -0.48659,-0.96289 0.0448,-2.75652 0.56236,-1.89702 1.28724,-3.03994 1.89789,-3.02751 z"
       id="path4053" />
  </g>
</svg>
