<?xml version="1.0" standalone="no"?>
<!DOCTYPE svg PUBLIC "-//W3C//DTD SVG 1.1//EN" "http://www.w3.org/Graphics/SVG/1.1/DTD/svg11.dtd">
<svg width="1000px" height="1000px" viewBox="12481 -164901 275 665" xmlns="http://www.w3.org/2000/svg" xmlns:xlink="http://www.w3.org/1999/xlink" version="1.1" style="border:1px solid #000">
<time>Fri May  4 11:18:55 2012</time>
<!-- (12481.177777777779, -164236.2290216626) (12756.852777777776, -164901.35058218602)  -->
<defs>
<path id="pid_0" style="stroke-width:0.5;stroke:#000000;stroke-opacity:1;fill:none;stroke-miterlimit:4;stroke-dasharray:none" d="M12672.888889 -164435.467779 12675.072222 -164432.121995 12676.711111 -164429.775577 12678.741667 -164424.704234 " />
<path id="pid_1" style="stroke-width:0.5;stroke:#000000;stroke-opacity:1;fill:none;stroke-miterlimit:4;stroke-dasharray:none" d="M12596.611111 -164335.866023 12598.163889 -164333.494304 12599.088889 -164331.694632 12599.711111 -164329.674969 12599.861111 -164328.376940 12599.719444 -164326.744514 12599.336111 -164324.729301 12598.552778 -164322.322510 12596.919444 -164318.274590 12594.705556 -164313.808771 12593.752778 -164312.510842 12592.155556 -164310.632159 12586.572222 -164304.820230 12585.708333 -164303.284782 12585.208333 -164301.573364 12584.280556 -164296.272021 12583.958333 -164294.864219 12581.830556 -164289.761016 12580.841667 -164288.230079 12579.777778 -164286.637566 12577.300000 -164284.204827 12570.838889 -164279.532995 12566.047222 -164276.528473 " />
<path id="pid_2" style="stroke-width:0.5;stroke:#000000;stroke-opacity:1;fill:none;stroke-miterlimit:4;stroke-dasharray:none" d="M12612.475000 -164434.908677 12612.922222 -164434.490453 12613.375000 -164434.384796 12614.052778 -164434.177885 12621.402778 -164423.203106 12621.577778 -164423.022619 12621.788889 -164422.802513 12622.766667 -164421.948505 12624.566667 -164424.396084 12625.563889 -164425.677112 12625.622222 -164425.897221 12625.933333 -164427.068204 12625.822222 -164427.798971 12625.413889 -164428.908333 12625.338889 -164429.018389 12623.633333 -164431.580512 12622.222222 -164433.702431 12619.380556 -164437.968348 " />
<path id="pid_3" style="stroke-width:0.5;stroke:#000000;stroke-opacity:1;fill:none;stroke-miterlimit:4;stroke-dasharray:none" d="M12659.827778 -164394.881819 12659.205556 -164395.687298 12658.019444 -164397.298264 12654.961111 -164401.000013 12654.041667 -164401.999188 12650.652778 -164405.516149 12647.763889 -164408.430122 12646.722222 -164409.253261 12645.647222 -164410.116020 12639.533333 -164414.253791 12638.844444 -164414.720396 " />
<path id="pid_4" style="stroke-width:0.5;stroke:#000000;stroke-opacity:1;fill:none;stroke-miterlimit:4;stroke-dasharray:none" d="M12641.400000 -164422.252250 12646.527778 -164420.095232 12647.733333 -164419.712254 12650.847222 -164418.655766 12658.211111 -164415.785667 " />
<path id="pid_5" style="stroke-width:0.5;stroke:#000000;stroke-opacity:1;fill:none;stroke-miterlimit:4;stroke-dasharray:none" d="M12621.355556 -164375.278419 12620.872222 -164373.522390 12619.827778 -164370.617715 12618.852778 -164368.346816 12617.863889 -164366.133153 12617.116667 -164364.157160 12616.005556 -164361.309828 12614.855556 -164358.114877 12613.555556 -164354.871569 12613.380556 -164354.796758 12613.225000 -164354.735149 " />
<path id="pid_6" style="stroke-width:0.5;stroke:#000000;stroke-opacity:1;fill:none;stroke-miterlimit:4;stroke-dasharray:none" d="M12638.886111 -164415.895716 12641.263889 -164422.313879 12642.527778 -164425.743145 12644.366667 -164430.700054 " />
<path id="pid_7" style="stroke-width:0.5;stroke:#000000;stroke-opacity:1;fill:none;stroke-miterlimit:4;stroke-dasharray:none" d="M12644.483333 -164431.523282 12642.372222 -164425.795971 12641.122222 -164422.375509 12638.783333 -164415.979354 12638.588889 -164415.442315 12638.416667 -164414.971306 12638.336111 -164414.755611 12638.250000 -164414.522308 12635.550000 -164407.127193 " />
<path id="pid_8" style="stroke-width:0.5;stroke:#000000;stroke-opacity:1;fill:none;stroke-miterlimit:4;stroke-dasharray:none" d="M12676.491667 -164352.191588 12673.563889 -164353.234532 12672.088889 -164353.670194 12670.344444 -164354.105857 12669.080556 -164354.295084 12667.697222 -164354.510716 12666.863889 -164354.462309 12666.266667 -164354.462309 12664.852778 -164354.457908 12663.330556 -164354.334690 12661.244444 -164354.070652 12660.130556 -164353.837418 12655.327778 -164352.468826 12651.011111 -164351.368678 12649.180556 -164350.501766 12648.727778 -164350.088114 " />
<path id="pid_9" style="stroke-width:0.5;stroke:#000000;stroke-opacity:1;fill:none;stroke-miterlimit:4;stroke-dasharray:none" d="M12680.930556 -164360.086411 12678.925000 -164361.032578 12675.816667 -164362.410029 12670.986111 -164364.636854 12668.897222 -164365.754676 12666.950000 -164367.127758 12664.488889 -164369.953166 12663.175000 -164372.294500 12662.447222 -164374.340988 12662.025000 -164376.308277 12661.905556 -164377.795859 12661.930556 -164380.361743 12662.141667 -164382.443522 " />
<path id="pid_10" style="stroke-width:0.5;stroke:#000000;stroke-opacity:1;fill:none;stroke-miterlimit:4;stroke-dasharray:none" d="M12536.975000 -164405.674612 12540.694444 -164402.976361 12540.980556 -164400.357374 12541.816667 -164398.447075 12542.841667 -164397.280658 12542.030556 -164396.017413 12545.177778 -164390.770848 12545.536111 -164388.913455 12545.297222 -164387.196922 12540.288889 -164377.184100 12559.602778 -164367.286191 12556.097222 -164360.015999 12552.138889 -164353.529374 12554.380556 -164351.623912 12532.969444 -164315.810678 12528.727778 -164304.415469 12523.052778 -164306.417284 12523.530556 -164303.034008 " />
<path id="pid_11" style="stroke-width:0.5;stroke:#000000;stroke-opacity:1;fill:none;stroke-miterlimit:4;stroke-dasharray:none" d="M12554.550000 -164335.540405 12555.275000 -164335.558006 12555.713889 -164335.659212 12556.108333 -164335.879224 12556.444444 -164336.231244 12556.719444 -164336.719673 12560.008333 -164343.320177 12560.102778 -164343.843826 12560.097222 -164344.323472 12560.044444 -164345.014340 12560.027778 -164345.511591 12559.975000 -164346.026445 12559.972222 -164346.431288 12559.922222 -164346.822930 12559.772222 -164347.139765 12559.422222 -164347.434598 12558.150000 -164348.046268 12556.683333 -164349.045186 12555.600000 -164349.744871 12554.838889 -164350.162923 12554.538889 -164350.290539 " />
<path id="pid_12" style="stroke-width:0.5;stroke:#000000;stroke-opacity:1;fill:none;stroke-miterlimit:4;stroke-dasharray:none" d="M12605.363889 -164393.653801 12605.638889 -164394.732168 12605.894444 -164395.735714 12606.100000 -164396.461968 12606.372222 -164397.329075 12606.700000 -164398.266610 12607.047222 -164399.199748 12607.416667 -164400.106481 12607.847222 -164401.070439 12608.355556 -164402.232477 12608.763889 -164403.068796 12609.158333 -164403.817084 12609.605556 -164404.604991 12610.113889 -164405.318071 12610.630556 -164405.973931 12611.200000 -164406.607784 12611.722222 -164407.135996 12612.325000 -164407.686219 12612.994444 -164408.249648 12613.797222 -164408.927527 12615.644444 -164410.520989 12616.863889 -164411.608249 12618.041667 -164412.669103 12619.313889 -164413.848814 12620.275000 -164414.760013 12621.347222 -164415.820883 12622.194444 -164416.683669 12623.144444 -164417.660911 12623.961111 -164418.545715 12625.247222 -164419.857522 12626.166667 -164420.874397 12626.919444 -164421.706390 12627.600000 -164422.481159 12628.638889 -164423.660927 12629.591667 -164424.691028 " />
<path id="pid_13" style="stroke-width:0.5;stroke:#000000;stroke-opacity:1;fill:none;stroke-miterlimit:4;stroke-dasharray:none" d="M12577.813889 -164377.544994 12579.650000 -164378.856538 12585.505556 -164384.129206 12586.825000 -164385.313154 12587.466667 -164385.894127 12592.130556 -164389.947783 12598.338889 -164395.348380 12598.394444 -164395.392395 12598.458333 -164395.480426 12604.819444 -164400.982406 " />
<path id="pid_14" style="stroke-width:0.5;stroke:#000000;stroke-opacity:1;fill:none;stroke-miterlimit:4;stroke-dasharray:none" d="M12522.750000 -164310.508967 12531.152778 -164314.776724 12532.597222 -164315.458693 12535.241667 -164319.418560 12538.027778 -164324.108900 12539.130556 -164325.974507 12545.566667 -164336.631668 12553.100000 -164349.599653 12554.161111 -164351.540301 12559.086111 -164360.209633 12565.497222 -164371.128231 12569.425000 -164377.993910 12571.150000 -164380.929499 12578.372222 -164393.803451 12584.930556 -164406.083975 12589.911111 -164410.300897 12592.711111 -164415.178198 12596.097222 -164419.258844 12601.094444 -164426.491516 12606.602778 -164432.667883 12615.233333 -164438.866448 12625.102778 -164445.611122 12626.263889 -164446.460825 12637.836111 -164453.742887 12650.255556 -164462.350494 12663.608333 -164471.526468 12676.483333 -164480.539929 12687.808333 -164489.958913 12694.602778 -164498.493176 12701.205556 -164507.265607 12708.050000 -164519.257844 12708.900000 -164521.156055 12713.602778 -164531.228760 12718.919444 -164542.077181 12723.663889 -164551.591494 12729.077778 -164562.581955 12735.872222 -164575.026776 12742.405556 -164586.899619 12747.650000 -164596.697985 12749.752778 -164600.905611 12753.752778 -164608.426681 12756.280556 -164619.896074 12756.852778 -164631.269164 12753.350000 -164639.637446 12746.925000 -164649.165101 12739.777778 -164658.790157 12736.775000 -164669.940626 12737.616667 -164679.562249 12744.583333 -164698.815667 12747.225000 -164710.726539 12745.602778 -164726.835089 12743.261111 -164734.559178 12736.511111 -164750.233095 12674.902778 -164877.723543 12673.088889 -164881.151611 12669.261111 -164889.247727 12663.319444 -164901.350582 " />
<path id="pid_15" style="stroke-width:0.5;stroke:#000000;stroke-opacity:1;fill:none;stroke-miterlimit:4;stroke-dasharray:none" d="M12625.316667 -164421.420255 12622.991667 -164419.016732 12622.425000 -164418.440067 12621.819444 -164417.845795 12621.069444 -164417.137074 12620.447222 -164416.639650 12619.791667 -164416.124619 12618.813889 -164415.415903 12618.016667 -164414.856856 12617.275000 -164414.350633 12616.400000 -164413.712354 12615.730556 -164413.206134 12615.088889 -164412.704318 12614.180556 -164411.933988 12613.555556 -164411.361744 12612.977778 -164410.785101 12612.372222 -164410.142431 12611.766667 -164409.446941 12611.172222 -164408.703034 12610.619444 -164407.950326 12610.033333 -164407.096380 12609.472222 -164406.198420 12609.022222 -164405.419311 12608.619444 -164404.644606 12608.280556 -164403.913922 12607.913889 -164403.095206 12607.597222 -164402.298502 12607.227778 -164401.259710 12606.947222 -164400.436603 12606.691667 -164399.591492 12606.322222 -164398.407461 " />
<path id="pid_16" style="stroke-width:0.5;stroke:#000000;stroke-opacity:1;fill:none;stroke-miterlimit:4;stroke-dasharray:none" d="M12623.108333 -164358.634163 12623.197222 -164358.436130 12634.561111 -164354.541521 12639.566667 -164353.054107 12642.491667 -164352.059571 12642.902778 -164352.134381 " />
<path id="pid_17" style="stroke-width:0.5;stroke:#000000;stroke-opacity:1;fill:none;stroke-miterlimit:4;stroke-dasharray:none" d="M12602.047222 -164373.830464 12602.791667 -164376.405101 12603.036111 -164377.364547 12603.236111 -164378.257980 12603.438889 -164379.270248 12603.608333 -164380.273719 12603.750000 -164381.325608 12603.883333 -164382.315886 12604.044444 -164383.442607 12604.177778 -164384.344869 12604.291667 -164385.084286 12604.461111 -164386.021766 12604.655556 -164386.932841 12604.886111 -164387.861527 12605.563889 -164390.612396 12606.452778 -164394.186381 12606.675000 -164395.053478 12606.875000 -164395.753321 12607.080556 -164396.461968 12607.336111 -164397.245445 12607.608333 -164397.984909 12607.888889 -164398.671557 12608.191667 -164399.345001 12608.522222 -164400.022850 12608.927778 -164400.779931 12609.347222 -164401.470989 12609.808333 -164402.223674 12610.166667 -164402.734268 12610.583333 -164403.310889 12611.094444 -164403.975546 12611.494444 -164404.486144 12611.977778 -164405.062770 12612.619444 -164405.793459 12614.269444 -164407.540960 12615.658333 -164408.984750 12617.186111 -164410.604625 12618.544444 -164412.039633 12619.858333 -164413.413024 12621.122222 -164414.733601 12622.216667 -164415.895716 " />
<path id="pid_18" style="stroke-width:0.5;stroke:#000000;stroke-opacity:1;fill:none;stroke-miterlimit:4;stroke-dasharray:none" d="M12583.144444 -164355.822113 12584.672222 -164360.737726 12588.080556 -164371.704763 12593.325000 -164390.198663 12594.525000 -164394.802592 12601.022222 -164404.917513 12603.763889 -164403.416530 12604.144444 -164404.010759 12605.502778 -164403.297684 12605.122222 -164402.703456 12605.363889 -164398.279815 12608.511111 -164397.373090 12610.561111 -164397.734019 12613.588889 -164401.858335 12615.186111 -164403.218453 12619.000000 -164405.243241 12621.933333 -164406.242438 12625.986111 -164406.528552 12631.233333 -164422.313879 12643.338889 -164432.887999 12656.266667 -164443.511092 12666.994444 -164447.966527 12669.666667 -164448.803032 " />
<path id="pid_19" style="stroke-width:0.5;stroke:#000000;stroke-opacity:1;fill:none;stroke-miterlimit:4;stroke-dasharray:none" d="M12597.583333 -164417.502439 12599.705556 -164420.759944 12603.222222 -164426.082113 12603.438889 -164426.407874 12605.094444 -164428.661808 12606.002778 -164429.669922 12607.250000 -164431.069845 12609.347222 -164432.861585 12612.475000 -164434.908677 12612.722222 -164435.075968 " />
<path id="pid_20" style="stroke-width:0.5;stroke:#000000;stroke-opacity:1;fill:none;stroke-miterlimit:4;stroke-dasharray:none" d="M12601.658333 -164388.618562 12601.375000 -164389.076306 12599.022222 -164394.239199 12598.458333 -164395.480426 12597.177778 -164398.367847 12593.702778 -164406.524150 12593.713889 -164407.078773 " />
<path id="pid_21" style="stroke-width:0.5;stroke:#000000;stroke-opacity:1;fill:none;stroke-miterlimit:4;stroke-dasharray:none" d="M12592.061111 -164369.627494 12593.108333 -164373.333145 12593.997222 -164376.475519 12594.613889 -164378.649683 12594.852778 -164379.503511 12595.000000 -164380.014048 12595.019444 -164380.084467 12597.275000 -164388.063989 12598.950000 -164393.983913 12598.983333 -164394.102753 12599.022222 -164394.239199 " />
<path id="pid_22" style="stroke-width:0.5;stroke:#000000;stroke-opacity:1;fill:none;stroke-miterlimit:4;stroke-dasharray:none" d="M12600.577778 -164370.780552 12600.163889 -164369.389842 12599.502778 -164367.052942 12599.008333 -164365.279381 12598.488889 -164363.461827 12596.761111 -164357.397561 12595.722222 -164353.692197 12595.136111 -164351.610710 12594.719444 -164350.180525 " />
<path id="pid_23" style="stroke-width:0.5;stroke:#000000;stroke-opacity:1;fill:none;stroke-miterlimit:4;stroke-dasharray:none" d="M12592.480556 -164346.686515 12592.750000 -164348.622735 12592.986111 -164349.964898 12593.088889 -164350.677789 12593.186111 -164351.188255 12593.322222 -164351.755930 12594.016667 -164354.180668 12595.105556 -164357.996058 12596.858333 -164364.214371 12597.352778 -164365.974721 12597.805556 -164367.559048 12599.166667 -164372.312104 12600.663889 -164377.522988 12601.863889 -164381.805342 12602.405556 -164383.869530 12602.794444 -164385.427588 " />
<path id="pid_24" style="stroke-width:0.5;stroke:#000000;stroke-opacity:1;fill:none;stroke-miterlimit:4;stroke-dasharray:none" d="M12620.930556 -164336.398454 12623.763889 -164335.007977 12627.750000 -164333.019083 12629.686111 -164332.205050 12633.188889 -164330.590195 12636.313889 -164329.151356 12639.697222 -164327.906131 " />
<path id="pid_25" style="stroke-width:0.5;stroke:#000000;stroke-opacity:1;fill:none;stroke-miterlimit:4;stroke-dasharray:none" d="M12629.783333 -164451.250931 12629.580556 -164450.955949 12629.322222 -164450.568510 12628.933333 -164450.176670 12628.577778 -164449.881689 12627.486111 -164448.776616 12625.961111 -164447.297325 12624.291667 -164446.104213 12608.269444 -164435.353317 12607.150000 -164434.635731 12605.838889 -164433.636396 12604.311111 -164432.302490 12601.641667 -164429.608291 12598.113889 -164424.911136 12596.158333 -164421.904484 12594.202778 -164419.069557 12592.258333 -164416.098207 12591.469444 -164415.195805 12590.583333 -164414.535514 " />
<path id="pid_26" style="stroke-width:0.5;stroke:#000000;stroke-opacity:1;fill:none;stroke-miterlimit:4;stroke-dasharray:none" d="M12536.419444 -164356.913483 12544.786111 -164353.362150 12556.136111 -164348.068270 12561.261111 -164345.920834 12566.761111 -164343.628205 12572.480556 -164341.458813 12585.650000 -164335.707614 12592.313889 -164332.939880 12596.358333 -164331.461423 12599.280556 -164331.083011 12601.472222 -164330.845403 12603.905556 -164330.224984 12606.908333 -164328.913751 12610.247222 -164327.197720 12612.011111 -164325.648904 12613.180556 -164323.884501 12614.008333 -164321.948514 12614.555556 -164320.113744 12616.438889 -164309.175861 12617.702778 -164302.162900 12617.941667 -164300.851846 12617.822222 -164299.967549 12615.555556 -164291.727494 12609.380556 -164272.868558 12608.902778 -164271.654467 12607.863889 -164269.784955 12606.661111 -164268.245370 12605.113889 -164266.930134 12599.033333 -164262.043160 12596.394444 -164260.380471 12587.311111 -164254.350040 12578.266667 -164248.095469 12563.077778 -164238.340126 12561.605556 -164237.676005 12559.958333 -164237.135035 12558.650000 -164236.673231 12556.350000 -164236.229022 12554.383333 -164236.277401 12550.205556 -164236.805175 12546.586111 -164237.341747 12545.211111 -164237.851931 12544.169444 -164238.674386 12543.427778 -164239.734346 12542.938889 -164240.613985 12541.686111 -164241.951044 12534.327778 -164247.950323 12530.183333 -164251.557012 12522.488889 -164258.128386 12517.400000 -164262.984476 12512.463889 -164268.799620 12511.963889 -164269.780556 12511.175000 -164271.311355 12510.738889 -164273.004924 12510.130556 -164273.902302 12506.066667 -164277.795381 12499.286111 -164283.879291 " />
<path id="pid_27" style="stroke-width:0.5;stroke:#000000;stroke-opacity:1;fill:none;stroke-miterlimit:4;stroke-dasharray:none" d="M12564.222222 -164345.282767 12570.875000 -164358.075271 12572.972222 -164362.366021 12573.183333 -164362.788499 12573.536111 -164363.483831 12573.663889 -164363.756683 12574.394444 -164365.222170 12577.408333 -164371.145835 12579.088889 -164374.446614 12579.975000 -164376.075018 12581.263889 -164377.575802 12582.955556 -164378.882945 12584.930556 -164379.776384 12585.394444 -164380.000845 12586.027778 -164380.044857 " />
<path id="pid_28" style="stroke-width:0.5;stroke:#000000;stroke-opacity:1;fill:none;stroke-miterlimit:4;stroke-dasharray:none" d="M12565.191667 -164379.050189 12562.600000 -164380.484977 12560.952778 -164381.404830 12560.780556 -164382.861640 12560.205556 -164384.023575 12559.183333 -164385.084286 12558.105556 -164385.528818 12557.302778 -164385.282345 12556.858333 -164384.657360 12556.902778 -164383.398594 12556.677778 -164382.254268 12556.394444 -164380.885487 12556.016667 -164380.137282 12555.400000 -164379.815995 12552.647222 -164374.323384 12552.600000 -164373.830464 12552.761111 -164373.196713 12552.844444 -164372.743405 12552.969444 -164372.070048 12553.411111 -164371.858799 12558.841667 -164369.231407 " />
<path id="pid_29" style="stroke-width:0.5;stroke:#000000;stroke-opacity:1;fill:none;stroke-miterlimit:4;stroke-dasharray:none" d="M12639.061111 -164437.448861 12637.902778 -164436.396684 12637.225000 -164435.797958 12636.713889 -164435.344513 12636.175000 -164434.807423 12635.716667 -164434.314358 12635.241667 -164433.772869 12634.738889 -164433.130127 12634.152778 -164432.368525 12633.688889 -164431.756604 12633.175000 -164431.122673 12630.372222 -164427.504022 12629.986111 -164427.046193 12626.838889 -164423.704948 12624.233333 -164420.997655 12623.047222 -164419.795893 12622.363889 -164419.161999 12621.661111 -164418.532509 12621.019444 -164417.977856 12620.425000 -164417.528851 12619.850000 -164417.145878 12619.244444 -164416.758503 12618.588889 -164416.379933 12617.816667 -164415.992560 12616.941667 -164415.644805 12616.027778 -164415.336668 12615.202778 -164415.116570 12614.408333 -164414.980110 12613.597222 -164414.905277 12612.713889 -164414.861258 12611.769444 -164414.900875 12610.975000 -164414.997718 12610.188889 -164415.116570 12609.355556 -164415.297050 12608.650000 -164415.486334 12607.841667 -164415.759256 12607.013889 -164416.067393 12606.205556 -164416.441561 12605.563889 -164416.767307 12604.886111 -164417.141476 12604.072222 -164417.630097 12602.769444 -164418.426861 " />
<path id="pid_30" style="stroke-width:0.5;stroke:#000000;stroke-opacity:1;fill:none;stroke-miterlimit:4;stroke-dasharray:none" d="M12645.750000 -164389.806938 12645.319444 -164391.096553 12643.697222 -164395.841351 12643.425000 -164396.527991 12643.161111 -164397.513941 12642.497222 -164398.984070 12641.919444 -164399.543074 12641.150000 -164399.930416 12640.388889 -164400.194514 12639.291667 -164400.286948 12638.386111 -164400.168104 12637.052778 -164399.965629 12636.666667 -164399.507861 " />
<path id="pid_31" style="stroke-width:0.5;stroke:#000000;stroke-opacity:1;fill:none;stroke-miterlimit:4;stroke-dasharray:none" d="M12616.152778 -164353.216930 12617.486111 -164357.089511 12618.736111 -164360.363660 " />
<path id="pid_32" style="stroke-width:0.5;stroke:#000000;stroke-opacity:1;fill:none;stroke-miterlimit:4;stroke-dasharray:none" d="M12629.658333 -164407.717031 12628.561111 -164407.989942 12625.947222 -164408.588587 12623.086111 -164409.248859 12622.405556 -164409.407325 12621.750000 -164409.526174 12621.019444 -164409.627416 12620.302778 -164409.680238 12619.602778 -164409.680238 12618.886111 -164409.640622 12618.163889 -164409.552585 12617.433333 -164409.429334 12616.550000 -164409.218047 " />
<path id="pid_33" style="stroke-width:0.5;stroke:#000000;stroke-opacity:1;fill:none;stroke-miterlimit:4;stroke-dasharray:none" d="M12600.305556 -164419.734264 12600.997222 -164419.245638 12601.608333 -164418.805435 12602.041667 -164418.466479 12602.422222 -164418.171544 12602.911111 -164417.744549 12603.413889 -164417.295546 12603.938889 -164416.762905 12604.405556 -164416.247874 12604.869444 -164415.693226 12605.280556 -164415.134178 12605.705556 -164414.535514 12606.047222 -164413.954460 12606.341667 -164413.382211 12606.644444 -164412.765944 12606.919444 -164412.118867 12607.169444 -164411.458585 12607.333333 -164410.947969 12607.505556 -164410.322906 12607.680556 -164409.601005 12607.791667 -164408.962741 12607.883333 -164408.262854 12607.927778 -164407.628996 12607.944444 -164406.915908 12607.913889 -164406.194018 12607.838889 -164405.494140 12607.725000 -164404.794265 12607.575000 -164404.111999 12607.372222 -164403.434136 12607.063889 -164402.470167 12606.483333 -164400.656685 " />
<path id="pid_34" style="stroke-width:0.5;stroke:#000000;stroke-opacity:1;fill:none;stroke-miterlimit:4;stroke-dasharray:none" d="M12563.525000 -164274.311401 12566.522222 -164276.242540 12571.363889 -164279.317442 12577.777778 -164283.993669 12580.302778 -164286.448401 12581.250000 -164287.856146 12581.386111 -164288.058510 12582.352778 -164289.642236 12583.258333 -164291.481133 12584.577778 -164294.587059 12584.958333 -164296.047652 12585.902778 -164301.362188 12586.330556 -164302.831629 12587.136111 -164304.463864 12592.569444 -164310.200988 12594.261111 -164312.079667 12595.216667 -164313.346795 12597.600000 -164317.957800 12599.275000 -164321.996914 12600.069444 -164324.579700 12600.505556 -164326.858916 12600.538889 -164328.262537 12600.369444 -164329.859774 12599.666667 -164331.958641 12598.755556 -164333.815518 12597.219444 -164336.270846 " />
<path id="pid_35" style="stroke-width:0.5;stroke:#000000;stroke-opacity:1;fill:none;stroke-miterlimit:4;stroke-dasharray:none" d="M12628.511111 -164423.203106 12627.752778 -164422.357900 12627.036111 -164421.561122 12625.883333 -164420.328541 12624.838889 -164419.232432 12624.094444 -164418.444469 12623.122222 -164417.436409 12621.786111 -164416.018971 12620.800000 -164414.958100 12619.505556 -164413.615512 12618.200000 -164412.242119 12616.841667 -164410.798306 12615.511111 -164409.424932 12613.927778 -164407.730237 12612.891667 -164406.678212 12612.233333 -164405.956324 12611.583333 -164405.203626 12611.063889 -164404.582982 12610.530556 -164403.900717 12610.108333 -164403.346102 12609.700000 -164402.778285 12609.297222 -164402.184059 12608.894444 -164401.497399 12608.522222 -164400.872365 12608.119444 -164400.110883 12607.788889 -164399.428632 12607.441667 -164398.653950 12607.147222 -164397.870468 12606.883333 -164397.078186 12606.636111 -164396.299111 12606.427778 -164395.520039 12606.280556 -164394.952243 12605.933333 -164393.592180 " />
<path id="pid_36" style="stroke-width:0.5;stroke:#000000;stroke-opacity:1;fill:none;stroke-miterlimit:4;stroke-dasharray:none" d="M12591.577778 -164424.752658 12591.047222 -164424.994777 12590.502778 -164425.223689 12589.700000 -164425.549449 12588.927778 -164425.892819 12588.311111 -164426.156950 12587.741667 -164426.407874 12586.900000 -164426.804072 12586.097222 -164427.178259 12585.566667 -164427.437989 12584.880556 -164427.763753 12583.913889 -164428.247998 12582.913889 -164428.732243 12582.072222 -164429.110836 12580.091667 -164430.057322 12579.166667 -164430.510756 12578.369444 -164430.898156 12577.502778 -164431.342788 12576.913889 -164431.655351 12576.325000 -164432.029547 12575.691667 -164432.460974 12575.194444 -164432.773538 12574.572222 -164433.147736 12573.972222 -164433.460302 12573.286111 -164433.790478 12572.355556 -164434.217506 12571.700000 -164434.494855 12571.072222 -164434.719376 12570.408333 -164434.926287 12569.733333 -164435.115589 12569.041667 -164435.265270 12568.286111 -164435.375329 12567.566667 -164435.428158 12566.694444 -164435.436963 12565.769444 -164435.392939 12564.955556 -164435.296086 12564.158333 -164435.181625 12563.255556 -164434.996725 12562.586111 -164434.794216 12561.830556 -164434.525671 " />
<path id="pid_37" style="stroke-width:0.5;stroke:#000000;stroke-opacity:1;fill:none;stroke-miterlimit:4;stroke-dasharray:none" d="M12632.775000 -164406.779453 12631.386111 -164407.580576 12630.733333 -164408.099987 12630.219444 -164408.531364 12629.652778 -164409.134412 12629.177778 -164409.759471 12628.808333 -164410.296495 12628.416667 -164410.983184 12628.019444 -164411.806333 12627.705556 -164412.594270 12627.413889 -164413.307378 12627.169444 -164414.020489 12626.961111 -164414.808434 12626.830556 -164415.490736 12626.769444 -164416.129021 12626.744444 -164416.749699 12626.780556 -164417.449615 12626.869444 -164418.101112 12627.030556 -164418.765817 12627.188889 -164419.324875 12627.438889 -164419.989583 12627.766667 -164420.676304 12628.169444 -164421.393842 12628.577778 -164421.992526 12629.066667 -164422.600016 12629.630556 -164423.189899 12630.250000 -164423.753372 12632.205556 -164425.501025 " />
<path id="pid_38" style="stroke-width:0.5;stroke:#000000;stroke-opacity:1;fill:none;stroke-miterlimit:4;stroke-dasharray:none" d="M12592.233333 -164407.871094 12592.177778 -164407.717031 12591.813889 -164406.748640 12591.175000 -164404.957129 12588.672222 -164400.093276 12585.477778 -164394.393252 12582.350000 -164388.072792 12579.152778 -164381.611688 12575.538889 -164375.912177 12573.619444 -164374.336587 12572.783333 -164373.619214 " />
<path id="pid_39" style="stroke-width:0.5;stroke:#000000;stroke-opacity:1;fill:none;stroke-miterlimit:4;stroke-dasharray:none" d="M12660.550000 -164394.336032 12660.880556 -164393.895883 12661.716667 -164391.976841 12662.230556 -164390.326304 12662.369444 -164389.098313 12662.347222 -164387.500615 12662.088889 -164384.969852 12661.786111 -164382.518343 12661.688889 -164381.998996 12661.477778 -164379.917222 12661.455556 -164377.351343 12661.572222 -164375.863765 12661.994444 -164373.892079 12662.825000 -164371.849997 12664.138889 -164369.508668 12665.077778 -164368.205986 12666.602778 -164366.683266 12668.550000 -164365.305786 12670.638889 -164364.192367 12675.469444 -164361.965547 12678.705556 -164360.627706 12680.769444 -164359.589125 " />
<path id="pid_40" style="stroke-width:0.5;stroke:#000000;stroke-opacity:1;fill:none;stroke-miterlimit:4;stroke-dasharray:none" d="M12583.144444 -164355.822113 12613.394444 -164345.709611 12613.108333 -164344.759115 12617.827778 -164343.113358 12618.161111 -164344.138654 12625.813889 -164341.229994 12634.277778 -164334.004727 12652.088889 -164319.748552 12659.408333 -164318.124995 " />
<path id="pid_41" style="stroke-width:0.5;stroke:#000000;stroke-opacity:1;fill:none;stroke-miterlimit:4;stroke-dasharray:none" d="M12618.736111 -164360.363660 12619.738889 -164363.237384 12622.169444 -164369.913557 12623.216667 -164372.721400 12623.830556 -164374.376197 12624.530556 -164376.365491 12626.394444 -164381.492855 12626.527778 -164381.862558 12626.683333 -164382.289478 12627.755556 -164385.238332 12627.919444 -164385.696068 " />
<path id="pid_42" style="stroke-width:0.5;stroke:#000000;stroke-opacity:1;fill:none;stroke-miterlimit:4;stroke-dasharray:none" d="M12606.483333 -164400.656685 12605.941667 -164398.975267 12605.552778 -164397.782436 12605.141667 -164396.303513 12604.827778 -164395.097493 12603.822222 -164391.021729 12603.150000 -164388.314867 12602.722222 -164386.703972 12602.288889 -164385.242733 12601.925000 -164384.001569 12601.588889 -164382.874844 12601.252778 -164381.774533 " />
<path id="pid_43" style="stroke-width:0.5;stroke:#000000;stroke-opacity:1;fill:none;stroke-miterlimit:4;stroke-dasharray:none" d="M12605.488889 -164394.762978 12605.916667 -164396.510385 12606.188889 -164397.386295 12606.511111 -164398.323831 12606.900000 -164399.296584 12607.294444 -164400.185710 12607.713889 -164401.140866 12608.211111 -164402.254485 12608.588889 -164403.055591 12608.988889 -164403.847896 12609.441667 -164404.657812 12609.958333 -164405.436918 12610.461111 -164406.057564 12611.022222 -164406.704623 12611.577778 -164407.268049 12612.130556 -164407.787460 12612.811111 -164408.364095 12613.641667 -164409.055179 12615.500000 -164410.644241 12616.747222 -164411.762314 12617.902778 -164412.818767 12619.166667 -164413.980871 12620.105556 -164414.865660 12621.208333 -164415.974952 12622.016667 -164416.776111 12622.972222 -164417.770961 12623.811111 -164418.651364 12625.100000 -164420.020398 " />
<path id="pid_44" style="stroke-width:0.5;stroke:#000000;stroke-opacity:1;fill:none;stroke-miterlimit:4;stroke-dasharray:none" d="M12563.375000 -164274.548944 12571.172222 -164279.418620 12577.619444 -164284.196029 12580.030556 -164286.496792 12581.141667 -164288.230079 12582.152778 -164289.809407 12582.966667 -164291.573518 12584.250000 -164294.714640 12584.600000 -164296.197232 12585.552778 -164301.423781 12586.011111 -164303.056005 12586.866667 -164304.675044 12592.319444 -164310.407774 12593.980556 -164312.268856 12594.963889 -164313.575583 12597.275000 -164318.072196 12598.886111 -164322.106912 12599.694444 -164324.614900 12600.102778 -164326.704914 12600.186111 -164328.288938 12600.013889 -164329.767372 12599.377778 -164331.853037 12598.438889 -164333.709914 12596.775000 -164335.976029 " />
<path id="pid_45" style="stroke-width:0.5;stroke:#000000;stroke-opacity:1;fill:none;stroke-miterlimit:4;stroke-dasharray:none" d="M12610.252778 -164332.029044 12612.816667 -164334.902371 12614.191667 -164336.209243 12615.691667 -164337.828543 " />
<path id="pid_46" style="stroke-width:0.5;stroke:#000000;stroke-opacity:1;fill:none;stroke-miterlimit:4;stroke-dasharray:none" d="M12660.752778 -164395.110698 12660.422222 -164395.665290 12660.200000 -164395.964594 12658.588889 -164398.121358 12656.061111 -164401.180480 12656.002778 -164401.250907 12655.802778 -164401.448981 12655.172222 -164402.056410 12654.672222 -164402.690251 12651.461111 -164405.828673 12651.244444 -164406.035555 12651.094444 -164406.189617 12647.977778 -164409.332494 12647.536111 -164409.733060 12646.708333 -164410.476971 12645.638889 -164411.313324 12645.186111 -164411.630258 12645.008333 -164411.749109 12639.291667 -164415.574373 12639.216667 -164415.627197 12639.027778 -164415.776863 12638.886111 -164415.895716 12638.783333 -164415.979354 12636.108333 -164417.590479 12634.700000 -164418.730600 12633.558333 -164420.280119 12632.891667 -164421.569926 " />
<path id="pid_47" style="stroke-width:0.5;stroke:#000000;stroke-opacity:1;fill:none;stroke-miterlimit:4;stroke-dasharray:none" d="M12632.227778 -164421.327811 12632.147222 -164421.125316 12631.869444 -164420.416583 12630.041667 -164415.790069 12629.366667 -164414.086517 12628.869444 -164412.831973 12628.188889 -164411.110838 12627.375000 -164409.046376 12626.797222 -164407.584978 12626.244444 -164406.189617 12625.080556 -164403.244864 12624.575000 -164401.968377 12623.366667 -164398.909243 12626.244444 -164406.189617 12623.366667 -164398.909243 " />
<path id="pid_48" style="stroke-width:0.5;stroke:#000000;stroke-opacity:1;fill:none;stroke-miterlimit:4;stroke-dasharray:none" d="M12634.325000 -164429.824001 12635.436111 -164431.021420 12635.869444 -164431.483661 12636.233333 -164431.871064 12636.569444 -164432.214444 12636.980556 -164432.645871 12637.422222 -164433.086104 12638.000000 -164433.631994 12638.863889 -164434.481648 12639.405556 -164434.970311 12640.147222 -164435.635070 12643.444444 -164438.545068 12644.213889 -164439.192230 12644.722222 -164439.601659 12645.211111 -164439.975870 12645.677778 -164440.323666 12646.200000 -164440.719890 12646.838889 -164441.160140 12647.283333 -164441.463913 12647.766667 -164441.767687 12648.225000 -164442.049448 12648.700000 -164442.335612 12649.261111 -164442.665803 12649.786111 -164442.943163 12650.338889 -164443.238133 12650.883333 -164443.519897 12651.455556 -164443.797258 12652.044444 -164444.092230 12652.622222 -164444.351981 12653.108333 -164444.572110 12653.852778 -164444.902304 12655.311111 -164445.553888 " />
<path id="pid_49" style="stroke-width:0.5;stroke:#000000;stroke-opacity:1;fill:none;stroke-miterlimit:4;stroke-dasharray:none" d="M12618.433333 -164345.234363 12626.891667 -164341.758038 " />
<path id="pid_50" style="stroke-width:0.5;stroke:#000000;stroke-opacity:1;fill:none;stroke-miterlimit:4;stroke-dasharray:none" d="M12537.561111 -164266.622221 12538.802778 -164268.043026 12542.216667 -164273.295252 12545.000000 -164277.575431 12550.230556 -164285.489380 12556.475000 -164294.969804 12562.058333 -164303.592750 12563.733333 -164305.779341 12571.588889 -164317.381419 12574.894444 -164322.238911 12585.650000 -164335.707614 " />
<path id="pid_51" style="stroke-width:0.5;stroke:#000000;stroke-opacity:1;fill:none;stroke-miterlimit:4;stroke-dasharray:none" d="M12625.088889 -164399.837982 12633.877778 -164404.516956 " />
<path id="pid_52" style="stroke-width:0.5;stroke:#000000;stroke-opacity:1;fill:none;stroke-miterlimit:4;stroke-dasharray:none" d="M12628.338889 -164325.816105 12628.900000 -164328.143735 12629.016667 -164328.746547 12629.686111 -164332.205050 12631.297222 -164335.562406 12633.158333 -164339.227839 12634.780556 -164342.814131 12635.750000 -164344.666706 12638.419444 -164350.506167 12639.566667 -164353.054107 12639.602778 -164353.150921 12639.658333 -164353.256536 12641.588889 -164357.489975 12642.519444 -164359.571522 " />
<path id="pid_53" style="stroke-width:0.5;stroke:#000000;stroke-opacity:1;fill:none;stroke-miterlimit:4;stroke-dasharray:none" d="M12614.516667 -164348.605133 12614.302778 -164348.486319 12613.150000 -164344.649104 12611.188889 -164338.669000 12610.308333 -164336.103637 12609.130556 -164332.425059 12607.850000 -164328.918151 12607.677778 -164328.429741 " />
<path id="pid_54" style="stroke-width:0.5;stroke:#000000;stroke-opacity:1;fill:none;stroke-miterlimit:4;stroke-dasharray:none" d="M12632.227778 -164421.327811 12632.725000 -164420.614675 12633.286111 -164419.897140 12634.544444 -164418.356429 12635.891667 -164417.225114 12638.588889 -164415.442315 12638.700000 -164415.371883 12638.844444 -164415.275040 12645.491667 -164410.886343 12646.230556 -164410.296495 12647.927778 -164408.685427 12654.369444 -164402.153247 12658.263889 -164397.500736 12659.975000 -164395.101895 12660.100000 -164394.921433 " />
<path id="pid_55" style="stroke-width:0.5;stroke:#000000;stroke-opacity:1;fill:none;stroke-miterlimit:4;stroke-dasharray:none" d="M12574.144444 -164374.002106 12576.033333 -164375.608501 12579.680556 -164381.686509 12582.775000 -164387.984765 12586.036111 -164394.450471 12589.075000 -164399.974432 12590.408333 -164402.945549 12590.872222 -164403.394521 12591.327778 -164403.891913 12592.200000 -164405.621791 12592.563889 -164406.603382 12592.616667 -164406.748640 12592.713889 -164407.065568 12592.983333 -164407.954728 12593.088889 -164408.443328 12593.316667 -164409.323690 12593.400000 -164409.645024 " />
<path id="pid_56" style="stroke-width:0.5;stroke:#000000;stroke-opacity:1;fill:none;stroke-miterlimit:4;stroke-dasharray:none" d="M12633.350000 -164426.284613 12630.344444 -164423.634514 12629.730556 -164423.066640 12629.161111 -164422.481159 12628.680556 -164421.882474 12628.291667 -164421.305801 12627.883333 -164420.566253 12627.577778 -164419.923552 12627.358333 -164419.311668 12627.166667 -164418.682178 12627.030556 -164418.061494 12626.941667 -164417.440811 12626.897222 -164416.749699 12626.922222 -164416.142226 12626.991667 -164415.481932 12627.108333 -164414.830444 12627.305556 -164414.060106 12627.544444 -164413.351397 12627.819444 -164412.677906 12628.180556 -164411.832744 12628.577778 -164411.044810 12628.947222 -164410.410943 12629.300000 -164409.895928 12629.783333 -164409.275270 12630.341667 -164408.685427 12630.816667 -164408.271657 12631.475000 -164407.725835 12632.258333 -164407.206425 12632.847222 -164406.845479 12633.352778 -164406.532954 " />
<path id="pid_57" style="stroke-width:0.5;stroke:#000000;stroke-opacity:1;fill:none;stroke-miterlimit:4;stroke-dasharray:none" d="M12614.516667 -164348.605133 12614.077778 -164347.139765 12611.291667 -164338.629397 12610.716667 -164336.944086 12610.411111 -164336.046433 12609.272222 -164332.376657 12607.891667 -164328.328539 " />
<path id="pid_58" style="stroke-width:0.5;stroke:#000000;stroke-opacity:1;fill:none;stroke-miterlimit:4;stroke-dasharray:none" d="M12606.222222 -164399.331797 12605.694444 -164397.672397 12605.275000 -164396.180270 12604.969444 -164395.005062 12603.972222 -164390.982116 12603.294444 -164388.226840 12602.855556 -164386.571932 12602.438889 -164385.088687 12601.908333 -164383.354582 " />
<path id="pid_59" style="stroke-width:0.5;stroke:#000000;stroke-opacity:1;fill:none;stroke-miterlimit:4;stroke-dasharray:none" d="M12562.047222 -164345.885630 12548.650000 -164352.253197 12545.238889 -164353.802213 12541.588889 -164355.404049 12540.375000 -164355.945332 12527.977778 -164361.477058 12524.186111 -164363.193376 12505.186111 -164371.682758 12489.830556 -164378.667287 12484.991667 -164380.837073 12481.225000 -164382.483133 " />
<path id="pid_60" style="stroke-width:0.5;stroke:#000000;stroke-opacity:1;fill:none;stroke-miterlimit:4;stroke-dasharray:none" d="M12674.677778 -164341.410409 12669.991667 -164342.981346 12667.711111 -164343.769019 12667.205556 -164344.433483 12666.497222 -164344.829522 12665.925000 -164344.987938 12665.058333 -164344.908730 12660.325000 -164346.541300 " />
<path id="pid_61" style="stroke-width:0.5;stroke:#000000;stroke-opacity:1;fill:none;stroke-miterlimit:4;stroke-dasharray:none" d="M12672.808333 -164335.637210 12672.425000 -164335.778018 12670.566667 -164338.567793 12667.458333 -164343.232169 " />
<path id="pid_62" style="stroke-width:0.5;stroke:#000000;stroke-opacity:1;fill:none;stroke-miterlimit:4;stroke-dasharray:none" d="M12655.100000 -164444.933122 12654.386111 -164444.594123 12653.750000 -164444.294748 12653.225000 -164444.043802 12652.808333 -164443.845686 12652.102778 -164443.493481 12651.463889 -164443.176498 12650.833333 -164442.855112 12650.261111 -164442.542532 12649.725000 -164442.234354 12649.269444 -164441.974605 12648.816667 -164441.710454 12648.225000 -164441.336240 12647.613889 -164440.922405 12646.961111 -164440.477753 12646.438889 -164440.112346 12645.877778 -164439.707318 12645.388889 -164439.319901 12644.861111 -164438.897265 12644.316667 -164438.457019 12643.841667 -164438.038787 12640.608333 -164435.186027 12638.369444 -164433.191760 12637.605556 -164432.504997 12636.969444 -164431.901880 12636.125000 -164431.091857 " />
<path id="pid_63" style="stroke-width:0.5;stroke:#000000;stroke-opacity:1;fill:none;stroke-miterlimit:4;stroke-dasharray:none" d="M12684.375000 -164451.647176 12682.836111 -164451.515095 12681.163889 -164451.383013 12680.344444 -164451.316972 12679.702778 -164451.272945 12679.086111 -164451.220112 12678.272222 -164451.123252 12677.586111 -164451.030795 12676.802778 -164450.933935 12675.980556 -164450.810659 12675.255556 -164450.704994 12674.525000 -164450.581718 12673.808333 -164450.436429 12672.977778 -164450.247113 12672.102778 -164450.031381 12669.430556 -164449.392991 12667.905556 -164449.031971 12666.647222 -164448.706173 12665.658333 -164448.455222 12664.791667 -164448.221881 12663.950000 -164448.001748 12663.152778 -164447.772810 12662.438889 -164447.552678 12661.911111 -164447.367767 12661.227778 -164447.125622 12660.736111 -164446.927503 12660.119444 -164446.676554 12659.513889 -164446.421202 12658.880556 -164446.135032 12658.305556 -164445.866473 12657.766667 -164445.593511 12657.186111 -164445.298537 12656.561111 -164444.968343 12655.936111 -164444.620539 12655.302778 -164444.268333 12652.461111 -164442.621777 12651.886111 -164442.291587 12651.113889 -164441.855737 12650.391667 -164441.419888 12649.883333 -164441.085298 12649.325000 -164440.724293 12648.769444 -164440.354483 12648.097222 -164439.887820 12647.508333 -164439.460780 12646.991667 -164439.064558 12646.419444 -164438.597898 12645.825000 -164438.091617 12644.680556 -164437.087863 12641.416667 -164434.208702 12636.847222 -164430.123356 12634.008333 -164427.570056 12632.508333 -164426.209776 12630.322222 -164424.140760 12629.402778 -164423.220714 12628.058333 -164421.838453 12626.847222 -164420.544242 12625.722222 -164419.368895 12624.830556 -164418.435665 12623.575000 -164417.119466 12622.311111 -164415.798873 12621.069444 -164414.460681 " />
<path id="pid_64" style="stroke-width:0.5;stroke:#000000;stroke-opacity:1;fill:none;stroke-miterlimit:4;stroke-dasharray:none" d="M12481.177778 -164382.197052 12484.919444 -164380.528989 12489.688889 -164378.359206 12504.922222 -164371.418697 12508.288889 -164369.900355 12524.066667 -164362.766495 12527.763889 -164361.120594 12540.233333 -164355.566874 12542.761111 -164354.471110 12545.072222 -164353.467765 12548.911111 -164351.799936 12556.947222 -164347.984661 12561.880556 -164345.648005 " />
<path id="pid_65" style="stroke-width:0.5;stroke:#000000;stroke-opacity:1;fill:none;stroke-miterlimit:4;stroke-dasharray:none" d="M12638.250000 -164414.522308 12638.352778 -164414.465083 12638.505556 -164414.355035 12645.175000 -164409.953152 12646.152778 -164409.116805 12647.836111 -164407.963532 12654.052778 -164401.611842 12654.747222 -164400.810742 12657.025000 -164397.967303 12657.944444 -164396.959344 12659.469444 -164394.736569 " />
<path id="pid_66" style="stroke-width:0.5;stroke:#000000;stroke-opacity:1;fill:none;stroke-miterlimit:4;stroke-dasharray:none" d="M12586.027778 -164380.044857 12587.280556 -164385.141503 12587.466667 -164385.894127 12587.655556 -164386.681965 12589.091667 -164392.949564 12590.180556 -164396.756872 12590.827778 -164398.046531 12591.902778 -164400.643480 12592.908333 -164403.183240 12593.263889 -164404.565375 12593.330556 -164404.882300 " />
<path id="pid_67" style="stroke-width:0.5;stroke:#000000;stroke-opacity:1;fill:none;stroke-miterlimit:4;stroke-dasharray:none" d="M12662.141667 -164382.443522 12666.008333 -164382.505139 12669.008333 -164382.826430 12673.222222 -164382.870443 " />
<path id="pid_68" style="stroke-width:0.5;stroke:#000000;stroke-opacity:1;fill:none;stroke-miterlimit:4;stroke-dasharray:none" d="M12672.477778 -164421.688782 12676.500000 -164418.501695 12677.450000 -164417.762157 12679.758333 -164415.904520 12684.308333 -164412.387382 12685.638889 -164410.921558 " />
<path id="pid_69" style="stroke-width:0.5;stroke:#000000;stroke-opacity:1;fill:none;stroke-miterlimit:4;stroke-dasharray:none" d="M12650.483333 -164418.550118 12645.313889 -164412.167287 " />
<path id="pid_70" style="stroke-width:0.5;stroke:#000000;stroke-opacity:1;fill:none;stroke-miterlimit:4;stroke-dasharray:none" d="M12608.308333 -164397.126603 12610.658333 -164397.588767 12614.122222 -164398.042130 12618.611111 -164398.455879 12623.069444 -164398.984070 12623.366667 -164398.909243 " />
<path id="pid_71" style="stroke-width:0.5;stroke:#000000;stroke-opacity:1;fill:none;stroke-miterlimit:4;stroke-dasharray:none" d="M12695.302778 -164341.709634 12694.102778 -164344.451084 12693.663889 -164345.388378 12693.238889 -164346.356480 12692.975000 -164346.765724 12692.172222 -164347.993462 12690.858333 -164350.000103 12689.308333 -164352.011164 12688.333333 -164353.260936 12687.194444 -164354.523918 12683.958333 -164357.441568 12681.880556 -164358.735380 12680.691667 -164359.351484 12679.241667 -164360.073209 12675.527778 -164361.666292 12670.591667 -164363.967924 12667.958333 -164365.442214 12666.322222 -164366.674464 12664.836111 -164368.188382 12663.630556 -164369.935562 12662.480556 -164372.083251 12661.836111 -164373.896480 12661.408333 -164375.824155 12661.205556 -164377.628615 12661.216667 -164380.058060 12661.441667 -164382.544750 12661.552778 -164383.425002 12661.841667 -164385.330759 12662.058333 -164387.579840 12662.058333 -164389.085109 12661.888889 -164390.528769 12661.497222 -164391.893214 12660.783333 -164393.398515 12660.263889 -164394.230396 " />
<path id="pid_72" style="stroke-width:0.5;stroke:#000000;stroke-opacity:1;fill:none;stroke-miterlimit:4;stroke-dasharray:none" d="M12570.725000 -164341.973657 12568.005556 -164343.201366 12565.247222 -164344.442283 12562.047222 -164345.885630 " />
<path id="pid_73" style="stroke-width:0.5;stroke:#000000;stroke-opacity:1;fill:none;stroke-miterlimit:4;stroke-dasharray:none" d="M12566.922222 -164344.055046 12568.347222 -164347.386193 12569.352778 -164349.423632 12570.791667 -164352.658052 12571.750000 -164354.840765 12572.880556 -164357.142320 " />
<path id="pid_74" style="stroke-width:0.5;stroke:#000000;stroke-opacity:1;fill:none;stroke-miterlimit:4;stroke-dasharray:none" d="M12565.191667 -164379.050189 12569.997222 -164388.504127 12573.133333 -164394.674948 12574.341667 -164397.047375 12578.308333 -164404.811872 12580.633333 -164409.156421 " />
<path id="pid_75" style="stroke-width:0.5;stroke:#000000;stroke-opacity:1;fill:none;stroke-miterlimit:4;stroke-dasharray:none" d="M12613.908333 -164353.511772 12613.555556 -164354.871569 12612.119444 -164362.696082 12611.544444 -164365.358597 12611.122222 -164367.576652 12610.602778 -164370.371260 " />
<path id="pid_76" style="stroke-width:0.5;stroke:#000000;stroke-opacity:1;fill:none;stroke-miterlimit:4;stroke-dasharray:none" d="M12623.472222 -164417.225114 12624.713889 -164418.510499 12625.611111 -164419.452534 12626.752778 -164420.649892 12627.941667 -164421.917691 12629.286111 -164423.313159 12630.213889 -164424.242009 12630.497222 -164424.528148 12632.450000 -164426.372657 12633.902778 -164427.684513 12636.758333 -164430.264228 12641.330556 -164434.336370 12644.611111 -164437.228740 12645.750000 -164438.232495 12646.327778 -164438.725569 12646.911111 -164439.187827 12647.441667 -164439.597257 12648.030556 -164440.028699 12648.688889 -164440.477753 12649.272222 -164440.865172 12649.808333 -164441.212970 12650.344444 -164441.551963 12651.050000 -164441.970203 12651.808333 -164442.401650 12653.377778 -164443.312977 12655.313889 -164444.435630 12655.900000 -164444.779032 12656.513889 -164445.135641 12657.186111 -164445.474641 12657.813889 -164445.774018 12658.261111 -164446.020564 12658.872222 -164446.306734 12659.472222 -164446.557683 12660.075000 -164446.821840 12660.705556 -164447.077193 12661.183333 -164447.266506 12661.855556 -164447.504249 12662.394444 -164447.689160 12663.111111 -164447.913695 12663.888889 -164448.147035 12664.741667 -164448.371571 12665.605556 -164448.591704 12666.600000 -164448.851462 12667.883333 -164449.172857 12669.377778 -164449.547085 " />
<path id="pid_77" style="stroke-width:0.5;stroke:#000000;stroke-opacity:1;fill:none;stroke-miterlimit:4;stroke-dasharray:none" d="M12621.069444 -164414.460681 12619.966667 -164413.316182 12618.638889 -164411.929586 12617.263889 -164410.494578 12615.744444 -164408.870303 12614.366667 -164407.430915 12612.713889 -164405.674612 12612.050000 -164404.917513 12611.605556 -164404.376102 12611.197222 -164403.874306 12610.691667 -164403.214052 12610.261111 -164402.624226 12609.933333 -164402.126837 12609.477778 -164401.391760 12609.075000 -164400.722710 12608.655556 -164399.921613 12608.333333 -164399.278977 12608.036111 -164398.623139 12607.730556 -164397.905681 12607.475000 -164397.210233 12607.194444 -164396.395945 12607.005556 -164395.713707 12606.816667 -164395.018266 12606.577778 -164394.120359 12605.702778 -164390.585988 12605.019444 -164387.826316 12604.797222 -164386.880025 12604.594444 -164385.951344 12604.425000 -164384.991859 12604.308333 -164384.283251 12604.177778 -164383.389792 12604.008333 -164382.271873 12603.875000 -164381.281596 12603.744444 -164380.242911 12603.572222 -164379.217434 12603.386111 -164378.213968 12603.200000 -164377.329338 12602.955556 -164376.330282 12602.791667 -164375.692122 " />
<path id="pid_78" style="stroke-width:0.5;stroke:#000000;stroke-opacity:1;fill:none;stroke-miterlimit:4;stroke-dasharray:none" d="M12628.547222 -164450.740216 12627.619444 -164449.599917 12626.247222 -164448.023761 12624.355556 -164446.526865 12606.711111 -164434.754595 12604.608333 -164433.108115 12603.211111 -164431.831443 12601.722222 -164430.484342 12600.775000 -164429.322144 12598.530556 -164426.284613 12596.305556 -164422.872947 12595.125000 -164421.270584 12594.580556 -164420.398974 12593.444444 -164418.523705 12592.425000 -164416.850945 " />
<path id="pid_79" style="stroke-width:0.5;stroke:#000000;stroke-opacity:1;fill:none;stroke-miterlimit:4;stroke-dasharray:none" d="M12613.319444 -164435.767142 12612.591667 -164435.269672 12611.433333 -164434.481648 12609.311111 -164433.033276 12607.558333 -164431.620132 12605.866667 -164429.832806 12605.022222 -164428.886322 12603.386111 -164426.570755 12601.550000 -164423.876631 12599.458333 -164420.896408 12598.911111 -164420.064418 12597.411111 -164417.581675 12596.336111 -164415.591981 12594.461111 -164411.771118 12593.863889 -164410.146833 12593.725000 -164409.649425 " />
<path id="pid_80" style="stroke-width:0.5;stroke:#000000;stroke-opacity:1;fill:none;stroke-miterlimit:4;stroke-dasharray:none" d="M12607.894444 -164384.608946 12608.538889 -164384.679367 12614.672222 -164393.094813 12618.611111 -164398.455879 12621.886111 -164402.663841 " />
<path id="pid_81" style="stroke-width:0.5;stroke:#000000;stroke-opacity:1;fill:none;stroke-miterlimit:4;stroke-dasharray:none" d="M12661.366667 -164448.318739 12659.261111 -164447.433806 12656.352778 -164446.152642 12653.805556 -164445.034382 12652.925000 -164444.646954 12652.525000 -164444.475254 12651.961111 -164444.219904 12651.383333 -164443.955750 12650.780556 -164443.651973 12650.244444 -164443.401028 12649.611111 -164443.057629 12649.152778 -164442.806684 12648.550000 -164442.467688 12648.150000 -164442.212342 12647.650000 -164441.917372 12647.155556 -164441.591586 12646.702778 -164441.283410 12646.083333 -164440.847562 12645.552778 -164440.446935 12645.066667 -164440.081529 12644.102778 -164439.289084 12643.341667 -164438.633117 12640.077778 -164435.740727 12637.855556 -164433.794881 12637.333333 -164433.328232 12636.880556 -164432.918815 12636.425000 -164432.469778 12636.094444 -164432.135202 12635.758333 -164431.791822 12635.150000 -164431.109466 12634.480556 -164430.356676 12633.808333 -164429.612693 12633.336111 -164429.075618 12632.905556 -164428.613383 12632.458333 -164428.124735 12630.619444 -164426.121732 " />
<path id="pid_82" style="stroke-width:0.5;stroke:#000000;stroke-opacity:1;fill:none;stroke-miterlimit:4;stroke-dasharray:none" d="M12593.991667 -164351.381880 12594.736111 -164354.004642 12595.794444 -164357.740816 12597.577778 -164363.871105 12598.072222 -164365.605046 12598.572222 -164367.374209 12599.897222 -164372.030438 12601.430556 -164377.307332 12601.905556 -164379.089800 12602.180556 -164380.238509 12602.491667 -164381.668904 12602.883333 -164383.380989 12603.105556 -164384.327263 12603.336111 -164385.365970 12603.555556 -164386.347464 12603.750000 -164387.139705 12603.988889 -164388.103602 12604.291667 -164389.318383 " />
<path id="pid_83" style="stroke-width:0.5;stroke:#000000;stroke-opacity:1;fill:none;stroke-miterlimit:4;stroke-dasharray:none" d="M12661.738889 -164373.654422 12662.319444 -164372.048042 12663.455556 -164369.891553 12664.741667 -164368.034349 12665.058333 -164367.717482 12666.197222 -164366.577644 12667.777778 -164365.266178 12670.558333 -164363.708274 12673.138889 -164362.559657 12675.291667 -164361.600280 12678.338889 -164360.174426 12680.633333 -164359.166653 12683.930556 -164357.243536 12687.183333 -164354.277482 12688.213889 -164353.040905 12689.255556 -164351.676719 12690.713889 -164349.806479 12692.241667 -164346.884537 12692.830556 -164346.096852 12693.866667 -164344.200260 " />
<path id="pid_84" style="stroke-width:0.5;stroke:#000000;stroke-opacity:1;fill:none;stroke-miterlimit:4;stroke-dasharray:none" d="M12567.819444 -164364.157160 12568.494444 -164363.959122 12569.825000 -164363.558645 12572.494444 -164362.867714 12573.183333 -164362.788499 12574.000000 -164362.740090 12576.861111 -164361.881932 12578.341667 -164360.777333 12579.480556 -164360.363660 12581.650000 -164359.593526 12583.030556 -164359.219462 12583.536111 -164359.003826 " />
<path id="pid_85" style="stroke-width:0.5;stroke:#000000;stroke-opacity:1;fill:none;stroke-miterlimit:4;stroke-dasharray:none" d="M12580.797222 -164337.212503 12581.672222 -164338.440184 12582.858333 -164340.983574 12584.741667 -164345.348774 12585.908333 -164348.200286 12586.883333 -164351.434687 " />
<path id="pid_86" style="stroke-width:0.5;stroke:#000000;stroke-opacity:1;fill:none;stroke-miterlimit:4;stroke-dasharray:none" d="M12586.027778 -164380.044857 12584.708333 -164375.709726 12583.861111 -164372.655384 12582.125000 -164367.638265 12581.886111 -164366.872505 12579.933333 -164361.679495 12579.861111 -164361.441852 12579.480556 -164360.363660 12577.811111 -164354.924377 12576.672222 -164352.314805 12575.788889 -164350.255335 12573.794444 -164345.212360 12572.305556 -164341.736036 " />
<path id="pid_87" style="stroke-width:0.5;stroke:#000000;stroke-opacity:1;fill:none;stroke-miterlimit:4;stroke-dasharray:none" d="M12597.202778 -164367.616260 12596.777778 -164366.102347 12596.127778 -164363.805092 12594.527778 -164358.141282 12593.433333 -164354.325889 12592.961111 -164352.675655 12592.769444 -164351.949556 12592.616667 -164351.293869 12592.480556 -164350.510567 12592.369444 -164349.788877 12591.913889 -164346.778926 " />
<path id="pid_88" style="stroke-width:0.5;stroke:#000000;stroke-opacity:1;fill:none;stroke-miterlimit:4;stroke-dasharray:none" d="M12661.527778 -164393.825459 12663.436111 -164391.263808 12664.980556 -164388.895849 12666.913889 -164385.907331 12669.008333 -164382.826430 12672.027778 -164378.350404 12674.913889 -164374.473020 12675.447222 -164373.645620 12678.616667 -164369.147789 12679.613889 -164367.519440 12680.447222 -164366.260779 12680.800000 -164365.693064 " />
<path id="pid_89" style="stroke-width:0.5;stroke:#000000;stroke-opacity:1;fill:none;stroke-miterlimit:4;stroke-dasharray:none" d="M12603.247222 -164386.615945 12602.555556 -164383.843123 12602.022222 -164381.765731 12600.841667 -164377.461372 12599.352778 -164372.237287 12597.977778 -164367.484233 12597.530556 -164365.886703 12597.025000 -164364.108751 12595.241667 -164357.925646 12594.169444 -164354.110258 12593.463889 -164351.698722 12593.327778 -164351.117846 12593.250000 -164350.642584 12593.127778 -164349.907691 12592.833333 -164348.081472 " />
<path id="pid_90" style="stroke-width:0.5;stroke:#000000;stroke-opacity:1;fill:none;stroke-miterlimit:4;stroke-dasharray:none" d="M12567.819444 -164364.157160 12567.338889 -164363.272591 12566.833333 -164362.379223 12564.272222 -164357.203929 12563.572222 -164355.786908 12562.452778 -164353.507371 12561.175000 -164350.796604 12560.741667 -164349.203605 12560.205556 -164348.063870 12559.772222 -164347.139765 " />
<path id="pid_91" style="stroke-width:0.5;stroke:#000000;stroke-opacity:1;fill:none;stroke-miterlimit:4;stroke-dasharray:none" d="M12659.408333 -164318.124995 12655.761111 -164316.791839 12649.608333 -164314.072758 12645.744444 -164311.644094 12644.027778 -164310.834545 12644.052778 -164308.018750 12639.911111 -164306.584469 12634.950000 -164304.758636 12633.758333 -164301.036625 12628.825000 -164302.682044 12627.727778 -164299.791570 12624.794444 -164299.479208 12618.763889 -164299.074457 12617.094444 -164296.285220 12618.358333 -164300.337105 12618.358333 -164301.291796 12614.650000 -164320.166543 12614.019444 -164322.414909 12613.302778 -164323.132104 12579.375000 -164338.699802 12583.144444 -164355.822113 " />
<path id="pid_92" style="stroke-width:0.5;stroke:#000000;stroke-opacity:1;fill:none;stroke-miterlimit:4;stroke-dasharray:none" d="M12594.025000 -164411.885567 12594.675000 -164413.078479 12595.575000 -164415.160590 12596.272222 -164416.630846 12597.011111 -164417.814981 12597.697222 -164419.043144 12598.644444 -164420.509026 12600.847222 -164423.757774 12603.458333 -164427.627284 12605.627778 -164430.277435 12608.080556 -164432.531411 12612.486111 -164435.454572 12630.280556 -164447.596704 12631.222222 -164448.147035 " />
<path id="pid_93" style="stroke-width:0.5;stroke:#000000;stroke-opacity:1;fill:none;stroke-miterlimit:4;stroke-dasharray:none" d="M12631.625000 -164427.512827 12632.691667 -164428.661808 12633.169444 -164429.190077 12633.738889 -164429.806392 12634.400000 -164430.563583 12635.016667 -164431.263546 12635.575000 -164431.915087 12635.994444 -164432.403743 12636.677778 -164433.182955 12636.955556 -164433.495521 12637.222222 -164433.777271 12637.450000 -164434.028205 12637.722222 -164434.305553 12638.005556 -164434.582902 12638.397222 -164434.930689 12639.722222 -164436.097321 12643.013889 -164438.998521 12643.822222 -164439.698513 12644.227778 -164440.041907 12644.675000 -164440.407313 12645.086111 -164440.724293 12645.438889 -164441.006052 12645.719444 -164441.204165 12646.122222 -164441.481523 12646.458333 -164441.697246 12646.863889 -164441.961398 12647.283333 -164442.203537 12647.691667 -164442.436871 12648.038889 -164442.626180 12648.419444 -164442.819891 12648.775000 -164442.991591 12649.200000 -164443.185303 12649.708333 -164443.409833 12650.944444 -164443.951348 12651.913889 -164444.387202 12652.841667 -164444.779032 12653.705556 -164445.144446 12655.366667 -164445.866473 " />
<path id="pid_94" style="stroke-width:0.5;stroke:#000000;stroke-opacity:1;fill:none;stroke-miterlimit:4;stroke-dasharray:none" d="M12577.997222 -164320.698933 12579.550000 -164323.017705 12579.808333 -164323.400502 12580.869444 -164324.984501 12580.966667 -164325.134102 12583.330556 -164328.812549 12586.644444 -164334.207137 " />
<path id="pid_95" style="stroke-width:0.5;stroke:#000000;stroke-opacity:1;fill:none;stroke-miterlimit:4;stroke-dasharray:none" d="M12624.991667 -164419.100371 12624.238889 -164418.312409 12623.261111 -164417.282340 12621.888889 -164415.834089 12620.961111 -164414.843650 12619.675000 -164413.505464 12618.375000 -164412.140876 12617.016667 -164410.714671 12615.702778 -164409.328092 12614.094444 -164407.633397 12613.072222 -164406.576971 12612.422222 -164405.872691 12611.772222 -164405.119993 12611.225000 -164404.477341 12610.727778 -164403.834691 12610.319444 -164403.280077 12609.947222 -164402.769481 12609.530556 -164402.157649 12609.066667 -164401.404965 12608.686111 -164400.749119 12608.325000 -164400.053662 12607.994444 -164399.353805 12607.650000 -164398.579123 12607.327778 -164397.782436 12607.097222 -164397.104595 12606.841667 -164396.321119 12606.611111 -164395.506835 12606.452778 -164394.978652 " />
<path id="pid_96" style="stroke-width:0.5;stroke:#000000;stroke-opacity:1;fill:none;stroke-miterlimit:4;stroke-dasharray:none" d="M12604.680556 -164387.892336 12604.461111 -164386.994460 12604.211111 -164385.986555 12604.036111 -164385.181115 12603.838889 -164384.177620 12603.697222 -164383.354582 12603.566667 -164382.601967 12603.352778 -164381.413633 12603.097222 -164379.855605 12602.827778 -164378.434026 12602.633333 -164377.474575 12602.508333 -164376.924434 12602.255556 -164375.951787 12601.875000 -164374.618256 12600.811111 -164370.987399 " />
</defs>
<g>
<text><textPath startOffset="0.910003" style="font-family:Limousine;font-size:3.000000pt" xlink:href="#pid_0" method="stretch" spacing="auto">iek</textPath></text>
<text><textPath startOffset="2.611488" style="font-family:Limousine;font-size:10.000000pt" xlink:href="#pid_1" method="stretch" spacing="auto">Zwaantjes</textPath></text>
<text><textPath startOffset="0.628230" style="font-family:Limousine;font-size:3.000000pt" xlink:href="#pid_2" method="stretch" spacing="auto">Zineke magraibin</textPath></text>
<text><textPath startOffset="1.792857" style="font-family:Limousine;font-size:3.000000pt" xlink:href="#pid_3" method="stretch" spacing="auto">Zenga zenga</textPath></text>
<text><textPath startOffset="1.509791" style="font-family:Limousine;font-size:3.000000pt" xlink:href="#pid_4" method="stretch" spacing="auto">Zdorovi</textPath></text>
<text><textPath startOffset="0.610165" style="font-family:Limousine;font-size:5.000000pt" xlink:href="#pid_5" method="stretch" spacing="auto">Zappa</textPath></text>
<text><textPath startOffset="0.393115" style="font-family:Limousine;font-size:3.000000pt" xlink:href="#pid_6" method="stretch" spacing="auto">Zabaan</textPath></text>
<text><textPath startOffset="2.490141" style="font-family:Limousine;font-size:4.000000pt" xlink:href="#pid_7" method="stretch" spacing="auto">Welkom</textPath></text>
<text><textPath startOffset="2.411620" style="font-family:Limousine;font-size:4.000000pt" xlink:href="#pid_8" method="stretch" spacing="auto">Welcome</textPath></text>
<text><textPath startOffset="0.477556" style="font-family:Limousine;font-size:3.000000pt" xlink:href="#pid_9" method="stretch" spacing="auto">Washing House</textPath></text>
<text><textPath startOffset="0.220608" style="font-family:Limousine;font-size:19.000000pt" xlink:href="#pid_10" method="stretch" spacing="auto">Video futur</textPath></text>
<text><textPath startOffset="1.773396" style="font-family:Limousine;font-size:3.000000pt" xlink:href="#pid_11" method="stretch" spacing="auto">Vermine</textPath></text>
<text><textPath startOffset="2.836373" style="font-family:Limousine;font-size:6.000000pt" xlink:href="#pid_12" method="stretch" spacing="auto">Vareneki</textPath></text>
<text><textPath startOffset="0.636211" style="font-family:Limousine;font-size:8.000000pt" xlink:href="#pid_13" method="stretch" spacing="auto">Vanga</textPath></text>
<text><textPath startOffset="100.946611" style="font-family:Limousine;font-size:33.000000pt" xlink:href="#pid_14" method="stretch" spacing="auto">Vacanciers de 28 jours</textPath></text>
<text><textPath startOffset="1.774033" style="font-family:Limousine;font-size:3.000000pt" xlink:href="#pid_15" method="stretch" spacing="auto">Un beau gars</textPath></text>
<text><textPath startOffset="2.229501" style="font-family:Limousine;font-size:3.000000pt" xlink:href="#pid_16" method="stretch" spacing="auto">Umugati</textPath></text>
<text><textPath startOffset="3.795254" style="font-family:Limousine;font-size:3.000000pt" xlink:href="#pid_17" method="stretch" spacing="auto">Ultra MarocBelgique</textPath></text>
<text><textPath startOffset="2.021861" style="font-family:Limousine;font-size:30.000000pt" xlink:href="#pid_18" method="stretch" spacing="auto">Tumie</textPath></text>
<text><textPath startOffset="1.990823" style="font-family:Limousine;font-size:3.000000pt" xlink:href="#pid_19" method="stretch" spacing="auto">Tubercule</textPath></text>
<text><textPath startOffset="1.827227" style="font-family:Limousine;font-size:3.000000pt" xlink:href="#pid_20" method="stretch" spacing="auto">Tsjehiler</textPath></text>
<text><textPath startOffset="0.038606" style="font-family:Limousine;font-size:4.000000pt" xlink:href="#pid_21" method="stretch" spacing="auto">Travailler </textPath></text>
<text><textPath startOffset="0.208522" style="font-family:Limousine;font-size:5.000000pt" xlink:href="#pid_22" method="stretch" spacing="auto">Traitre</textPath></text>
<text><textPath startOffset="1.310590" style="font-family:Limousine;font-size:5.000000pt" xlink:href="#pid_23" method="stretch" spacing="auto">Tot Morgen</textPath></text>
<text><textPath startOffset="1.306902" style="font-family:Limousine;font-size:3.000000pt" xlink:href="#pid_24" method="stretch" spacing="auto">Tortellinis</textPath></text>
<text><textPath startOffset="6.210673" style="font-family:Limousine;font-size:3.000000pt" xlink:href="#pid_25" method="stretch" spacing="auto">Tomates Espagnoles</textPath></text>
<text><textPath startOffset="65.479365" style="font-family:Limousine;font-size:33.000000pt" xlink:href="#pid_26" method="stretch" spacing="auto">Toctoc</textPath></text>
<text><textPath startOffset="1.511899" style="font-family:Limousine;font-size:11.000000pt" xlink:href="#pid_27" method="stretch" spacing="auto">Thuis</textPath></text>
<text><textPath startOffset="1.838047" style="font-family:Limousine;font-size:3.000000pt" xlink:href="#pid_28" method="stretch" spacing="auto">Thieboudienne</textPath></text>
<text><textPath startOffset="0.682680" style="font-family:Limousine;font-size:4.000000pt" xlink:href="#pid_29" method="stretch" spacing="auto">Tesjekkur ederim</textPath></text>
<text><textPath startOffset="1.339661" style="font-family:Limousine;font-size:4.000000pt" xlink:href="#pid_30" method="stretch" spacing="auto">Terre</textPath></text>
<text><textPath startOffset="0.050167" style="font-family:Limousine;font-size:3.000000pt" xlink:href="#pid_31" method="stretch" spacing="auto">Tek</textPath></text>
<text><textPath startOffset="0.682069" style="font-family:Limousine;font-size:4.000000pt" xlink:href="#pid_32" method="stretch" spacing="auto">Tami</textPath></text>
<text><textPath startOffset="1.274971" style="font-family:Limousine;font-size:4.000000pt" xlink:href="#pid_33" method="stretch" spacing="auto">Tamam</textPath></text>
<text><textPath startOffset="3.264654" style="font-family:Limousine;font-size:5.000000pt" xlink:href="#pid_34" method="stretch" spacing="auto">Systme d'inscription</textPath></text>
<text><textPath startOffset="2.389630" style="font-family:Limousine;font-size:4.000000pt" xlink:href="#pid_35" method="stretch" spacing="auto">Supermarket</textPath></text>
<text><textPath startOffset="2.632517" style="font-family:Limousine;font-size:3.000000pt" xlink:href="#pid_36" method="stretch" spacing="auto">Sup' hair belle</textPath></text>
<text><textPath startOffset="0.209952" style="font-family:Limousine;font-size:4.000000pt" xlink:href="#pid_37" method="stretch" spacing="auto">Squatter</textPath></text>
<text><textPath startOffset="0.349503" style="font-family:Limousine;font-size:8.000000pt" xlink:href="#pid_38" method="stretch" spacing="auto">Spiegel</textPath></text>
<text><textPath startOffset="5.474620" style="font-family:Limousine;font-size:3.000000pt" xlink:href="#pid_39" method="stretch" spacing="auto">Speedy Gonzalez</textPath></text>
<text><textPath startOffset="2.295512" style="font-family:Limousine;font-size:12.000000pt" xlink:href="#pid_40" method="stretch" spacing="auto">Spaghettis</textPath></text>
<text><textPath startOffset="0.723045" style="font-family:Limousine;font-size:5.000000pt" xlink:href="#pid_41" method="stretch" spacing="auto">Sororit</textPath></text>
<text><textPath startOffset="0.799978" style="font-family:Limousine;font-size:3.000000pt" xlink:href="#pid_42" method="stretch" spacing="auto">Sommarti</textPath></text>
<text><textPath startOffset="0.587527" style="font-family:Limousine;font-size:7.000000pt" xlink:href="#pid_43" method="stretch" spacing="auto">Smeks</textPath></text>
<text><textPath startOffset="0.018285" style="font-family:Limousine;font-size:8.000000pt" xlink:href="#pid_44" method="stretch" spacing="auto">Selam Confort</textPath></text>
<text><textPath startOffset="0.227593" style="font-family:Limousine;font-size:3.000000pt" xlink:href="#pid_45" method="stretch" spacing="auto">SEL</textPath></text>
<text><textPath startOffset="2.169394" style="font-family:Limousine;font-size:7.000000pt" xlink:href="#pid_46" method="stretch" spacing="auto">Schmitt</textPath></text>
<text><textPath startOffset="4.131633" style="font-family:Limousine;font-size:3.000000pt" xlink:href="#pid_47" method="stretch" spacing="auto">Schaerbeekoise</textPath></text>
<text><textPath startOffset="1.237557" style="font-family:Limousine;font-size:3.000000pt" xlink:href="#pid_48" method="stretch" spacing="auto">Schaerbeek</textPath></text>
<text><textPath startOffset="0.072424" style="font-family:Limousine;font-size:4.000000pt" xlink:href="#pid_49" method="stretch" spacing="auto">Saz</textPath></text>
<text><textPath startOffset="3.872700" style="font-family:Limousine;font-size:5.000000pt" xlink:href="#pid_50" method="stretch" spacing="auto">Sant &amp; Bien-Etre</textPath></text>
<text><textPath startOffset="0.478387" style="font-family:Limousine;font-size:3.000000pt" xlink:href="#pid_51" method="stretch" spacing="auto">Salot</textPath></text>
<text><textPath startOffset="0.381692" style="font-family:Limousine;font-size:4.000000pt" xlink:href="#pid_52" method="stretch" spacing="auto">Sac de frappe</textPath></text>
<text><textPath startOffset="1.685424" style="font-family:Limousine;font-size:3.000000pt" xlink:href="#pid_53" method="stretch" spacing="auto">Saberbas</textPath></text>
<text><textPath startOffset="1.362900" style="font-family:Limousine;font-size:7.000000pt" xlink:href="#pid_54" method="stretch" spacing="auto">Sabena</textPath></text>
<text><textPath startOffset="1.674359" style="font-family:Limousine;font-size:4.000000pt" xlink:href="#pid_55" method="stretch" spacing="auto">Rgularisation</textPath></text>
<text><textPath startOffset="1.057702" style="font-family:Limousine;font-size:7.000000pt" xlink:href="#pid_56" method="stretch" spacing="auto">RPG</textPath></text>
<text><textPath startOffset="1.666463" style="font-family:Limousine;font-size:4.000000pt" xlink:href="#pid_57" method="stretch" spacing="auto">Rolloto</textPath></text>
<text><textPath startOffset="0.776947" style="font-family:Limousine;font-size:4.000000pt" xlink:href="#pid_58" method="stretch" spacing="auto">Rifain</textPath></text>
<text><textPath startOffset="0.112900" style="font-family:Limousine;font-size:9.000000pt" xlink:href="#pid_59" method="stretch" spacing="auto">Rif commercial</textPath></text>
<text><textPath startOffset="0.986307" style="font-family:Limousine;font-size:6.000000pt" xlink:href="#pid_60" method="stretch" spacing="auto">RIF</textPath></text>
<text><textPath startOffset="0.182808" style="font-family:Limousine;font-size:3.000000pt" xlink:href="#pid_61" method="stretch" spacing="auto">Riad</textPath></text>
<text><textPath startOffset="1.319790" style="font-family:Limousine;font-size:8.000000pt" xlink:href="#pid_62" method="stretch" spacing="auto">Raf</textPath></text>
<text><textPath startOffset="4.163733" style="font-family:Limousine;font-size:6.000000pt" xlink:href="#pid_63" method="stretch" spacing="auto">Ratonetcompany</textPath></text>
<text><textPath startOffset="1.548588" style="font-family:Limousine;font-size:16.000000pt" xlink:href="#pid_64" method="stretch" spacing="auto">Rastello</textPath></text>
<text><textPath startOffset="1.887651" style="font-family:Limousine;font-size:4.000000pt" xlink:href="#pid_65" method="stretch" spacing="auto">Ramadan</textPath></text>
<text><textPath startOffset="0.229991" style="font-family:Limousine;font-size:7.000000pt" xlink:href="#pid_66" method="stretch" spacing="auto">Ralek</textPath></text>
<text><textPath startOffset="0.299216" style="font-family:Limousine;font-size:3.000000pt" xlink:href="#pid_67" method="stretch" spacing="auto">Radio</textPath></text>
<text><textPath startOffset="0.264638" style="font-family:Limousine;font-size:3.000000pt" xlink:href="#pid_68" method="stretch" spacing="auto">Racisme</textPath></text>
<text><textPath startOffset="1.106814" style="font-family:Limousine;font-size:3.000000pt" xlink:href="#pid_69" method="stretch" spacing="auto">QG</textPath></text>
<text><textPath startOffset="0.846186" style="font-family:Limousine;font-size:3.000000pt" xlink:href="#pid_70" method="stretch" spacing="auto">Qann</textPath></text>
<text><textPath startOffset="3.000047" style="font-family:Limousine;font-size:7.000000pt" xlink:href="#pid_71" method="stretch" spacing="auto">Pperonnade</textPath></text>
<text><textPath startOffset="0.259396" style="font-family:Limousine;font-size:3.000000pt" xlink:href="#pid_72" method="stretch" spacing="auto">Put !</textPath></text>
<text><textPath startOffset="1.191658" style="font-family:Limousine;font-size:3.000000pt" xlink:href="#pid_73" method="stretch" spacing="auto">Pundu</textPath></text>
<text><textPath startOffset="1.918116" style="font-family:Limousine;font-size:3.000000pt" xlink:href="#pid_74" method="stretch" spacing="auto">Publique phone</textPath></text>
<text><textPath startOffset="1.842140" style="font-family:Limousine;font-size:3.000000pt" xlink:href="#pid_75" method="stretch" spacing="auto">Prunes</textPath></text>
<text><textPath startOffset="2.298223" style="font-family:Limousine;font-size:6.000000pt" xlink:href="#pid_76" method="stretch" spacing="auto">Provencettes</textPath></text>
<text><textPath startOffset="3.348057" style="font-family:Limousine;font-size:3.000000pt" xlink:href="#pid_77" method="stretch" spacing="auto">Produits chimiques</textPath></text>
<text><textPath startOffset="1.136569" style="font-family:Limousine;font-size:6.000000pt" xlink:href="#pid_78" method="stretch" spacing="auto">Pro du pneu</textPath></text>
<text><textPath startOffset="2.365257" style="font-family:Limousine;font-size:4.000000pt" xlink:href="#pid_79" method="stretch" spacing="auto">Princesses</textPath></text>
<text><textPath startOffset="1.773171" style="font-family:Limousine;font-size:4.000000pt" xlink:href="#pid_80" method="stretch" spacing="auto">Poupee</textPath></text>
<text><textPath startOffset="1.971749" style="font-family:Limousine;font-size:7.000000pt" xlink:href="#pid_81" method="stretch" spacing="auto">Poulets</textPath></text>
<text><textPath startOffset="0.910098" style="font-family:Limousine;font-size:3.000000pt" xlink:href="#pid_82" method="stretch" spacing="auto">Pouet pouet utrus</textPath></text>
<text><textPath startOffset="1.557741" style="font-family:Limousine;font-size:9.000000pt" xlink:href="#pid_83" method="stretch" spacing="auto">Potiron</textPath></text>
<text><textPath startOffset="0.844945" style="font-family:Limousine;font-size:3.000000pt" xlink:href="#pid_84" method="stretch" spacing="auto">Potager</textPath></text>
<text><textPath startOffset="0.263605" style="font-family:Limousine;font-size:5.000000pt" xlink:href="#pid_85" method="stretch" spacing="auto">Porc</textPath></text>
<text><textPath startOffset="3.117394" style="font-family:Limousine;font-size:3.000000pt" xlink:href="#pid_86" method="stretch" spacing="auto">Pommes de terre</textPath></text>
<text><textPath startOffset="1.012381" style="font-family:Limousine;font-size:6.000000pt" xlink:href="#pid_87" method="stretch" spacing="auto">Poka</textPath></text>
<text><textPath startOffset="1.306585" style="font-family:Limousine;font-size:6.000000pt" xlink:href="#pid_88" method="stretch" spacing="auto">Poisson</textPath></text>
<text><textPath startOffset="4.968625" style="font-family:Limousine;font-size:3.000000pt" xlink:href="#pid_89" method="stretch" spacing="auto">Pippi Langkous</textPath></text>
<text><textPath startOffset="1.177737" style="font-family:Limousine;font-size:4.000000pt" xlink:href="#pid_90" method="stretch" spacing="auto">Pipas </textPath></text>
<text><textPath startOffset="1.573563" style="font-family:Limousine;font-size:16.000000pt" xlink:href="#pid_91" method="stretch" spacing="auto">Philanthrope</textPath></text>
<text><textPath startOffset="2.535644" style="font-family:Limousine;font-size:8.000000pt" xlink:href="#pid_92" method="stretch" spacing="auto">Pelmenis</textPath></text>
<text><textPath startOffset="1.715448" style="font-family:Limousine;font-size:4.000000pt" xlink:href="#pid_93" method="stretch" spacing="auto">Patchwork</textPath></text>
<text><textPath startOffset="0.520568" style="font-family:Limousine;font-size:3.000000pt" xlink:href="#pid_94" method="stretch" spacing="auto">Patates</textPath></text>
<text><textPath startOffset="1.152219" style="font-family:Limousine;font-size:3.000000pt" xlink:href="#pid_95" method="stretch" spacing="auto">Pain marocain</textPath></text>
<text><textPath startOffset="0.430098" style="font-family:Limousine;font-size:3.000000pt" xlink:href="#pid_96" method="stretch" spacing="auto">Pain gris</textPath></text>
</g>
</svg>